<?xml version="1.0" encoding="UTF-8"?><svg id="Capa_1" xmlns="http://www.w3.org/2000/svg" viewBox="0 0 969.39 226.94"><path d="M13.94,76.04c5.08-12.47,12.66-23.69,22.06-33.09,18.22-18.22,43.44-29.54,71.35-29.54h.19c27.71,0,52.94,11.32,71.06,29.44,8.54,8.44,15.15,17.84,19.76,28.39-14.38-23.78-40.47-39.7-70.39-39.7-44.69,0-81.04,35.67-82.09,79.98v2.59c0,16.02,6.14,30.59,16.11,41.52,5.27,5.75,11.7,10.45,18.8,13.91v-25.03c0-7.1.29-12.28,3.74-17.07,3.45-4.79,9.11-6.81,15.73-6.81h19.56v11.89l.1,62.24c0,4.22-1.34,8.06-3.55,11.22h0c-3.55,5.08-9.4,8.34-16.02,8.34s-1.05,0-1.63,0h0c-2.4-.1-4.79-.38-7.1-.77h0c-23.11-3.64-43.54-14.96-58.59-31.46-16.49-17.84-26.56-41.72-26.56-67.9s0-1.05,0-1.63c.19-12.95,2.88-25.22,7.48-36.54" fill="#fff" stroke-width="0"/><path d="M331.27,85.83c-4.51-1.44-8.34-2.3-11.6-2.78s-6.81-.77-10.64-.77c-10.45,0-18.99,2.88-25.32,8.82-6.33,5.75-9.49,13.71-9.49,23.59s2.88,17.65,8.73,23.59c5.95,5.75,13.62,8.82,23.11,8.82s4.79-.1,6.52-.48c1.63-.38,3.84-.96,6.23-1.92v-36.15h18.22v47.57l-5.47,1.92c-3.84,1.15-7.96,2.01-12.37,2.69-4.51.58-8.73.96-12.47.96-15.82,0-28.29-4.22-37.5-12.47-9.21-8.44-13.91-19.66-13.91-34.04s4.7-26.28,14.1-34.91c9.49-8.73,22.15-13.14,38.17-13.14s11.03.67,16.3,1.73c1.53.29,3.16.67,4.51,1.05,1.53.38,3.64,1.15,6.71,2.11l-3.93,13.91.1-.1Z" fill="#fff" stroke-width="0"/><path d="M362.05,125.82c0,6.71,1.63,11.99,4.79,16.02,3.16,4.12,7.38,6.14,12.56,6.14s9.49-2.01,12.56-6.04c3.16-4.03,4.79-9.49,4.79-16.11s-1.63-11.99-4.79-16.21c-3.16-4.12-7.48-6.14-12.56-6.14s-9.3,2.01-12.56,6.04c-3.16,4.12-4.79,9.59-4.79,16.3M379.41,90.43c10.64,0,19.18,3.26,25.7,9.69,6.62,6.43,9.88,15.06,9.88,25.7s-3.26,19.08-9.88,25.61c-6.52,6.62-15.15,9.88-25.7,9.88s-19.08-3.26-25.61-9.69c-6.62-6.43-9.88-15.06-9.88-25.61s3.26-19.18,9.88-25.7c6.52-6.62,15.15-9.88,25.61-9.88Z" fill="#fff" stroke-width="0"/><path d="M421.8,91.68h15.82v9.97c6.43-7.48,13.91-11.22,22.15-11.22s16.02,4.03,20.23,12.08c.67-.86,1.15-1.63,1.82-2.21.48-.77,2.3-2.49,5.18-5.47,2.88-2.88,7.86-4.41,15.06-4.41s6.9.58,10.07,2.01,5.66,3.36,7.67,5.75c3.16,4.22,4.7,9.59,4.7,16.4v45.36h-17.55v-42.77c0-.77-.1-2.01-.38-3.93-.29-1.92-1.44-3.55-3.26-5.18-2.01-1.63-4.41-2.4-7.19-2.4s-4.32.48-6.23,1.53-3.55,2.4-4.7,4.22c-1.25,1.63-2.11,3.36-2.59,5.27-.38,1.92-.58,4.6-.58,8.34v34.91h-17.45v-44.88c-.67-6.43-4.32-9.59-10.74-9.59s-4.51.48-6.71,1.63c-2.01,1.15-3.64,2.49-4.79,4.32-.96,1.73-1.92,3.64-2.3,5.75s-.58,5.18-.58,8.82v33.95h-17.55v-68.38l-.1.1Z" fill="#fff" stroke-width="0"/><path d="M548.77,119.68h30.59c-.38-5.27-1.92-9.3-4.51-12.28-2.69-2.88-6.04-4.32-10.45-4.32s-7.96,1.44-10.64,4.32c-2.69,2.88-4.32,6.9-4.99,12.28M548.77,131.67c0,5.18,1.92,9.21,5.56,12.18,3.64,2.97,8.63,4.41,14.77,4.41s10.36-1.25,17.17-3.64l4.79,11.12-4.7,2.11c-2.78.96-5.75,1.73-9.11,2.4-3.26.67-6.52.86-9.69.86-11.03,0-19.66-3.26-26.28-9.69-6.71-6.43-9.97-14.86-9.97-25.51s3.07-19.18,9.11-25.7c6.04-6.62,14-9.88,23.88-9.88s17.55,3.26,23.02,9.88c5.47,6.43,8.06,15.63,8.06,27.52v3.93h-46.61Z" fill="#fff" stroke-width="0"/><path d="M598.16,146.82l29.73-36.06c1.92-2.01,4.51-4.22,8.25-6.62-1.25.1-2.88.38-5.08.67-2.11.38-3.84.48-4.89.48h-26.66v-13.52h54.57v13.91l-29.44,35.96c-1.92,2.4-4.79,4.79-8.63,7.19,4.51-1.53,8.25-2.21,10.84-2.21h27.52v13.52h-56.2v-13.33Z" fill="#fff" stroke-width="0"/><path d="M712.37,108.55h8.82c11.22,0,16.97-4.32,16.97-13.04s-5.47-12.18-16.4-12.18h-9.4v25.22h0ZM694.25,69.04h35.87c1.25,0,4.03.29,8.34.86,4.32.67,8.44,3.16,12.37,7.48,3.93,4.41,5.95,9.88,5.95,16.4,0,10.93-5.47,18.41-16.4,22.06,1.63.67,2.78,1.44,3.55,2.11.77.86,1.73,2.3,2.88,4.32s2.3,4.32,3.36,6.81l14.29,30.88h-19.47l-11.7-25.61c-2.11-4.7-4.03-7.86-5.85-9.3-1.73-1.53-4.32-2.3-7.58-2.3h-7.48v37.21h-18.22v-90.91h.1Z" fill="#fff" stroke-width="0"/><path d="M781.23,125.82c0,6.71,1.63,11.99,4.79,16.02,3.16,4.12,7.38,6.14,12.56,6.14s9.49-2.01,12.56-6.04c3.16-4.03,4.79-9.49,4.79-16.11s-1.63-11.99-4.79-16.21c-3.16-4.12-7.48-6.14-12.56-6.14s-9.3,2.01-12.56,6.04c-3.16,4.12-4.79,9.59-4.79,16.3M798.59,90.43c10.64,0,19.18,3.26,25.7,9.69,6.62,6.43,9.88,15.06,9.88,25.7s-3.26,19.08-9.88,25.61c-6.52,6.62-15.15,9.88-25.7,9.88s-19.08-3.26-25.61-9.69c-6.62-6.43-9.88-15.06-9.88-25.61s3.26-19.18,9.88-25.7c6.52-6.62,15.15-9.88,25.61-9.88Z" fill="#fff" stroke-width="0"/><path d="M888.35,106.44c-3.64-1.44-7.48-2.01-11.12-2.01-6.33,0-11.41,2.01-15.15,5.95-3.93,4.03-5.85,9.3-5.85,15.73s1.92,11.22,5.85,15.15c3.74,3.93,8.82,5.95,15.15,5.95s4.32-.1,5.95-.38c1.63-.29,3.64-.86,6.33-1.82l4.22,12.18c-6.81,2.69-13.33,4.03-19.28,4.03-10.74,0-19.47-3.26-26.18-9.69-6.71-6.43-9.97-15.06-9.97-25.61s3.26-19.28,9.97-25.7c6.71-6.43,15.44-9.69,26.18-9.69s7.1.29,9.49.67c2.4.38,5.47,1.44,9.11,2.78l-4.7,12.47h0Z" fill="#fff" stroke-width="0"/><path d="M912.52,125.82c0,6.71,1.63,11.99,4.79,16.02,3.16,4.12,7.38,6.14,12.56,6.14s9.49-2.01,12.56-6.04c3.16-4.03,4.79-9.49,4.79-16.11s-1.63-11.99-4.79-16.21c-3.16-4.12-7.48-6.14-12.56-6.14s-9.3,2.01-12.56,6.04c-3.16,4.12-4.79,9.59-4.79,16.3M929.78,90.43c10.64,0,19.18,3.26,25.7,9.69,6.62,6.43,9.88,15.06,9.88,25.7s-3.26,19.08-9.88,25.61c-6.52,6.62-15.15,9.88-25.7,9.88s-19.08-3.26-25.61-9.69c-6.62-6.43-9.88-15.06-9.88-25.61s3.26-19.18,9.88-25.7c6.52-6.62,15.15-9.88,25.61-9.88Z" fill="#fff" stroke-width="0"/><path d="M194.61,75.56c6.52,12.85,7.58,24.17,7.58,38.65s0,.96,0,1.34c-.19,16.88-4.12,30.78-14.1,44.5-3.36,4.6-9.11,10.84-15.73,15.44l25.13,36.06h-30.59c-11.8-.19-16.3-4.6-20.91-11.41-4.32-6.43-7.19-10.45-10.84-16.49-5.37-8.92-3.74-18.22,4.51-25.22,3.16-2.69,12.75-10.17,18.22-17.45,5.37-7.1,8.44-15.92,8.63-25.51,0-2.59-.1-5.27-.48-8.06-1.82-12.56-7.77-23.88-16.3-32.51-10.55-10.55-25.13-17.07-41.05-17.17h-.19c-8.44,0-16.49,1.82-23.78,5.08-2.88,1.34-5.75,2.88-8.34,4.6-3.26,2.21-6.33,4.7-9.11,7.38-3.64,3.55-6.71,7.67-9.3,12.08-.29.58-.58,1.05-.86,1.63-4.03,7.48-6.43,16.02-6.81,25.03.96-42.1,35.39-75.95,77.77-75.95,28.29,0,54.09,13.91,66.65,37.69" fill="#fff" stroke-width="0"/></svg>