<?xml version="1.0" encoding="UTF-8"?><svg id="Capa_1" xmlns="http://www.w3.org/2000/svg" viewBox="0 0 513 290.11"><path d="M431.56,71.11c40.83,0,73.94,33.19,73.94,74.13s-33.11,74.13-73.94,74.13c-9.94.02-19.78-1.99-28.91-5.9,37.68-16.15,55.14-59.78,38.98-97.46-7.51-17.52-21.46-31.48-38.98-38.99,9.14-3.91,18.97-5.92,28.91-5.9Z" fill="#fff" stroke-width="0"/><path d="M437.25,139.08c.4,4.96.3,9.95-.3,14.89s-1.7,9.84-3.3,14.62c-.17.51-.35,1.02-.52,1.53-.18.52-.38,1.03-.57,1.55-.39,1-.8,1.99-1.23,2.96-4.27,9.73-10.57,18.43-18.49,25.51h0s-.03-.03-.04-.04c.31-.28.62-.56.92-.85.64-.6,1.27-1.21,1.88-1.83.03-.03.06-.06.09-.09,1.17-1.18,2.29-2.4,3.37-3.65.22-.25.43-.5.64-.75.43-.5.84-1.01,1.25-1.53.62-.77,1.21-1.55,1.78-2.34.19-.26.39-.52.57-.79.2-.28.4-.56.59-.84.18-.25.35-.51.52-.76.36-.54.72-1.08,1.06-1.63.17-.27.35-.55.51-.82.17-.27.34-.55.5-.83.17-.27.33-.55.49-.83.16-.26.31-.53.46-.8.33-.57.64-1.15.95-1.73.3-.56.59-1.14.88-1.71.14-.28.28-.57.42-.86.14-.28.27-.57.41-.86.02-.04.04-.08.06-.12.12-.25.23-.5.35-.76.02-.04.03-.07.05-.11.12-.25.23-.51.34-.76.12-.27.24-.55.35-.82.13-.32.26-.63.39-.94.11-.26.21-.52.31-.78.03-.07.05-.14.08-.21.22-.56.43-1.13.63-1.69.22-.6.43-1.2.62-1.8.11-.3.2-.6.29-.9.19-.61.38-1.22.55-1.83,0-.04.02-.07.03-.1.16-.56.32-1.12.46-1.68.25-.95.48-1.9.69-2.86l.18-.87c.05-.22.09-.44.13-.66.06-.27.11-.55.16-.83.06-.27.1-.55.15-.82.06-.36.12-.72.18-1.07.15-.96.28-1.91.4-2.87,1.47-12.27-.11-24.9-4.89-36.69-.14-.35-.28-.7-.44-1.05-.12-.29-.24-.58-.37-.86-.38-.86-.77-1.72-1.19-2.58-.12-.25-.24-.51-.38-.76-.1-.22-.21-.44-.33-.66-.13-.26-.26-.52-.41-.78-.11-.21-.22-.42-.34-.62-.12-.24-.25-.49-.39-.73-.22-.4-.45-.8-.68-1.2-.22-.39-.46-.78-.7-1.17-.02-.03-.04-.06-.06-.1-.19-.33-.39-.65-.6-.97-.06-.09-.11-.18-.17-.27-.18-.3-.38-.6-.57-.89-.03-.05-.06-.09-.09-.14h0s0,0,0,0c.02-.03.04-.06.06-.09,0,0,0,0,0,0l.03-.05.19-.26c2.38,3.57,4.44,7.34,6.15,11.27.01.02.02.04.03.06.85,1.95,1.62,3.95,2.3,5.98v.03c1.92,5.72,3.12,11.62,3.6,17.57Z" fill="#fff" stroke-width="0"/><path d="M436.99,145.23c0,.31,0,.62,0,.94-.25,19.82-8.39,39.5-24.21,53.92h0s0,0,0,0c16.06-14.64,24.21-34.71,24.21-54.85h.01Z" fill="#fff" stroke-width="0"/><path d="M436.99,145.23c0-9.45-1.79-18.91-5.4-27.84,4.78,11.79,6.36,24.42,4.89,36.69.31-2.61.48-5.26.51-7.92,0-.32,0-.63,0-.94Z" fill="#fff" stroke-width="0"/><path d="M431.59,117.39c3.61,8.93,5.4,18.39,5.4,27.84h-.01c0-13.39-3.6-26.82-10.87-38.7.08.11.15.23.21.34.02.04.04.07.06.1.24.39.47.78.7,1.17.23.4.46.8.68,1.2.14.24.27.48.39.73.12.2.23.41.34.62.14.26.27.52.41.78.12.22.23.44.33.66.13.25.26.51.38.76.42.86.81,1.72,1.19,2.58.13.29.25.57.37.86.15.35.29.7.44,1.05Z" fill="#fff" stroke-width="0"/><path d="M295.67,115.67s0,0,0,.01h0c-.12.28-.24.56-.35.84-.06.12-.11.25-.16.38-.28.67-.54,1.34-.8,2.02v.02h0c.54-1.46,1.15-2.9,1.78-4.31-.16.35-.32.71-.47,1.06.15-.36.31-.71.47-1.06-.16.35-.32.7-.47,1.05ZM405.78,205.73c.26-.18.53-.37.79-.56.5-.36,1.01-.73,1.5-1.1-.75.57-1.51,1.14-2.28,1.68-.51.37-1.05.72-1.59,1.08-1.2.8-2.44,1.56-3.69,2.29-3.92,2.27-8.05,4.17-12.32,5.67-2.92,1.05-5.91,1.9-8.94,2.54-1.11.26-2.23.47-3.37.66-2.03.34-4.07.6-6.16.76h-.04c-.55.06-1.11.1-1.67.13h-.03c-.69.04-1.37.08-2.03.09-.78.03-1.58.05-2.37.05-.65,0-1.27,0-1.9-.03s-1.38-.04-2.07-.08c-.57,0-1.15-.07-1.71-.11l-.48-.04h-.04c-.45-.03-.9-.08-1.36-.12-.36-.04-.71-.07-1.07-.12s-.63-.07-.94-.11c-.92-.12-1.84-.26-2.76-.41-.14,0-.26-.05-.4-.07-.42-.07-.85-.15-1.27-.23-.61-.11-1.19-.23-1.78-.37-.51-.1-.96-.21-1.43-.32-.07-.01-.14-.03-.2-.06-.45-.11-.9-.22-1.36-.34-1.5-.39-2.98-.82-4.43-1.32-.48-.15-.97-.33-1.45-.51v28.86c0,13.62-11.04,24.66-24.66,24.66s-24.66-11.04-24.66-24.66v-28.88c6.59-2.31,12.82-5.56,18.49-9.66,2.15-1.53,4.2-3.19,6.16-4.96,2.17-1.94,4.21-4.02,6.14-6.21l.36-.41c2.1-2.41,4.04-4.96,5.81-7.63,1.99-2.99,3.77-6.13,5.3-9.38,1.23-2.57,2.29-5.22,3.19-7.93,2.87,3.49,6.36,6.42,10.29,8.64,3.73,2.13,7.8,3.57,12.03,4.27,4.08.69,8.25.69,12.32,0,2.1-.34,4.16-.87,6.16-1.59,4.56-1.59,8.75-4.08,12.32-7.32,1.38-1.22,2.66-2.55,3.83-3.99,5.21-6.25,8.19-14.07,8.46-22.21v-2.68c-.52-13.75-8.62-26.09-21.04-32.03-1.16-.55-2.34-1.05-3.56-1.48-2-.72-4.06-1.26-6.16-1.61-.07-.02-.15-.03-.22-.03-4.01-.67-8.1-.66-12.11.03-4.23.7-8.31,2.15-12.03,4.27-11.59,6.57-18.76,18.86-18.77,32.18,0,8.01-1.3,15.96-3.85,23.54-.69,2.03-1.47,4.07-2.33,6.04-1.62,3.72-3.55,7.29-5.77,10.68l-.4.61c-1.87,2.82-3.92,5.5-6.16,8.02-5.31,6.01-11.55,11.13-18.49,15.16-3.01,1.74-6.13,3.27-9.35,4.58-.99.4-1.97.77-2.97,1.11-3.77,1.34-7.64,2.36-11.58,3.05-1.7.32-3.42.55-5.18.74-.56.06-1.12.11-1.7.15-1.55.14-3.11.22-4.68.25h-1.48c-.65,0-1.28,0-1.91-.03s-1.38-.04-2.06-.08c-.57,0-1.15-.07-1.71-.11-.16,0-.32-.02-.48-.04h-.04c-.45-.03-.9-.08-1.36-.12-.1,0-.2,0-.3-.03h-.03c-.25-.03-.48-.06-.74-.1s-.63-.07-.95-.11c-1.05-.14-2.09-.28-3.15-.48-.43-.07-.85-.15-1.28-.23-.6-.11-1.19-.23-1.78-.37-.48-.1-.96-.21-1.42-.32-.07-.01-.14-.03-.2-.06-.45-.11-.9-.22-1.36-.34-1.49-.39-2.97-.82-4.43-1.32-.48-.15-.98-.33-1.45-.51-1.02-.34-1.98-.71-2.97-1.11-5.21-2.09-10.16-4.79-14.74-8.04-1.89-1.31-3.71-2.71-5.45-4.2l-.74-.62-.74-.66c.51-.44.99-.89,1.47-1.36,1.63-1.55,3.19-3.16,4.68-4.85,4.62-5.23,8.48-11.09,11.46-17.4,1.21-2.57,2.26-5.21,3.16-7.91.34.41.7.82,1.06,1.22,2.65,2.96,5.77,5.47,9.23,7.42,1.88,1.07,3.84,1.96,5.87,2.67,2,.72,4.06,1.25,6.16,1.59,4.08.69,8.25.69,12.32,0,2.1-.34,4.16-.87,6.16-1.59.24-.08.51-.18.74-.27,4.27-1.6,8.2-3.99,11.58-7.05,1.38-1.22,2.67-2.55,3.83-3.99,5.21-6.25,8.19-14.07,8.46-22.21v-1.34c0-.86,0-1.73.06-2.58-.02-.1-.02-.2,0-.3,0-.86.07-1.72.14-2.59,0-.07,0-.14,0-.22.06-.83.14-1.66.23-2.48s.2-1.78.34-2.66.26-1.68.41-2.52c.16-.95.36-1.88.57-2.81.17-.78.36-1.56.55-2.33,0-.06,0-.11.04-.15.22-.86.45-1.7.71-2.54s.51-1.6.75-2.39c.02-.06.03-.11.06-.17.27-.81.56-1.6.86-2.39.54-1.46,1.15-2.9,1.78-4.31.1-.21.18-.41.27-.61.18-.38.37-.77.56-1.15.12-.27.26-.55.4-.82l.33-.66c.32-.62.64-1.25.99-1.85.41-.76.83-1.53,1.27-2.23s.86-1.41,1.3-2.11c.01-.03.03-.06.06-.08.2-.32.41-.63.63-.94.11-.19.23-.37.36-.54s.28-.44.44-.66c.51-.7.99-1.4,1.49-2.08l.07-.1c.51-.66,1.02-1.3,1.53-1.93s1.07-1.33,1.63-1.97c.22-.26.44-.51.66-.75s.48-.55.73-.81.51-.57.79-.86c1.48-1.58,3.05-3.1,4.64-4.53.75-.69,1.53-1.34,2.3-1.99.63-.51,1.26-1.02,1.91-1.53.07-.06.15-.11.22-.16.51-.4,1.05-.79,1.59-1.18.16-.12.32-.23.48-.36l.41-.28c.48-.35.97-.67,1.46-1.02,1.84-1.22,3.74-2.37,5.68-3.42.53-.29,1.05-.56,1.59-.83,1.2-.62,2.44-1.2,3.69-1.77.59-.26,1.17-.51,1.76-.75s1.25-.51,1.88-.74c.53-.21,1.08-.41,1.63-.61,2.03-.73,4.11-1.36,6.23-1.9.62-.15,1.25-.32,1.88-.45.81-.19,1.63-.37,2.45-.51.51-.11,1.05-.21,1.59-.29s1.19-.2,1.79-.29l.51-.08c.58-.08,1.16-.15,1.75-.2.04,0,.09,0,.13,0,.54-.07,1.09-.12,1.65-.16.18-.03.36-.04.55-.06h.07c1.02-.1,2.01-.15,3.05-.19.39,0,.77-.04,1.15-.04h1.9c1.7,0,3.38.06,5.04.18.37,0,.75.06,1.12.08.02-.02.05-.02.07,0l.47.04c1.9.16,3.78.41,5.63.73,7.57,1.27,14.9,3.73,21.7,7.27-.09.04-.16.09-.24.12,0,0,0,0,.01,0l-.03.02c24.4,12.83,39.67,38.13,39.66,65.69l.05-.02c0,20.14-8.15,40.21-24.21,54.85-.17-.14-.33-.3-.51-.47-.08.41-.19.81-.3,1.2h0c-.24.22-.49.43-.74.65-1.67,1.44-3.4,2.8-5.19,4.08-.08.06-.16.12-.24.18ZM302.27,103.69s-.04.06-.07.08c0,0,0,.01,0,.01-.03.04-.06.08-.09.12,0,0,0,0,0,.01-.06.09-.12.18-.18.25-.22.32-.43.63-.62.95.06-.1.13-.2.19-.29-.04.05-.07.1-.09.15-.04.05-.07.11-.1.16.2-.32.41-.63.63-.94.11-.19.23-.37.36-.54-.01.02-.02.03-.04.04Z" fill="#fff" stroke-width="0"/><path d="M436.98,146.17c-.03,2.66-.2,5.3-.51,7.92-.12.96-.25,1.92-.4,2.87-.06.36-.12.72-.18,1.07l-.15.82c-.05.28-.1.56-.16.83-.05.22-.09.44-.13.66l-.18.87c-.21.96-.44,1.91-.69,2.86-.15.56-.3,1.12-.46,1.68-.02.04-.03.07-.03.1-.18.61-.36,1.22-.55,1.83-.1.3-.19.61-.29.9-.2.61-.41,1.2-.62,1.8-.2.56-.41,1.13-.63,1.69-.03.07-.06.14-.08.21-.1.26-.2.52-.31.78-.13.32-.25.63-.39.94l-.35.82-.34.76s-.04.08-.05.11c-.12.25-.23.5-.35.76-.02.04-.04.08-.06.12-.13.29-.27.58-.41.86-.14.29-.28.58-.42.86-.28.57-.58,1.14-.88,1.71-.31.58-.63,1.16-.95,1.73-.15.26-.3.53-.46.8-.16.27-.33.55-.49.83-.17.28-.34.55-.5.83s-.34.55-.51.82c-.35.54-.7,1.09-1.06,1.63-.17.25-.35.51-.52.76-.19.28-.39.56-.59.84-.19.26-.38.53-.57.79-.58.79-1.17,1.57-1.78,2.34-.41.51-.82,1.02-1.25,1.53-.21.25-.42.5-.64.75-1.07,1.25-2.2,2.47-3.37,3.65-.03.03-.06.06-.09.09-.62.62-1.24,1.23-1.88,1.83-.31.29-.61.57-.92.85,0,0-.01,0-.02-.01h0c15.81-14.42,23.96-34.1,24.21-53.92Z" fill="#fff" stroke-width="0"/><path d="M436.08,156.95c.15-.95.28-1.91.4-2.87-.11.96-.24,1.91-.4,2.87Z" fill="#fff" stroke-width="0"/><path d="M435.75,158.85l.15-.82c-.05.27-.1.55-.15.82Z" fill="#fff" stroke-width="0"/><path d="M435.59,159.68c.06-.27.11-.55.16-.83-.05.28-.1.56-.16.83Z" fill="#fff" stroke-width="0"/><path d="M435.27,161.21l.18-.87-.18.87Z" fill="#fff" stroke-width="0"/><path d="M434.12,165.75c.16-.56.31-1.12.46-1.68-.14.56-.3,1.12-.46,1.68Z" fill="#fff" stroke-width="0"/><path d="M433.65,121.49c1.92,5.73,3.12,11.64,3.6,17.59-.48-5.94-1.68-11.84-3.6-17.57v-.03Z" fill="#fff" stroke-width="0"/><path d="M433.65,168.59c1.6-4.77,2.7-9.67,3.3-14.62-.6,4.95-1.7,9.86-3.3,14.64-.17.5-.34,1.01-.52,1.5.18-.51.36-1.02.52-1.53Z" fill="#fff" stroke-width="0"/><path d="M433.54,167.68c.19-.61.38-1.22.55-1.83-.18.61-.36,1.22-.55,1.83Z" fill="#fff" stroke-width="0"/><path d="M433.25,168.58c.1-.3.2-.61.29-.9-.09.31-.19.61-.29.9Z" fill="#fff" stroke-width="0"/><path d="M432.63,170.39c.21-.6.42-1.2.62-1.8-.19.61-.4,1.2-.62,1.8Z" fill="#fff" stroke-width="0"/><path d="M431.99,172.08c.22-.56.43-1.13.63-1.69-.2.56-.41,1.13-.63,1.69Z" fill="#fff" stroke-width="0"/><path d="M431.34,115.51c.86,1.95,1.63,3.95,2.3,5.98-.68-2.03-1.45-4.03-2.3-5.98Z" fill="#fff" stroke-width="0"/><path d="M431.32,174.63c.43-.98.84-1.97,1.23-2.96-.39,1.01-.8,2-1.23,2.99-4.27,9.73-10.56,18.42-18.48,25.5,0-.01,0-.02,0-.02,7.92-7.08,14.22-15.78,18.49-25.51Z" fill="#fff" stroke-width="0"/><path d="M431.6,173.07c.11-.26.21-.52.31-.78-.1.26-.2.52-.31.78Z" fill="#fff" stroke-width="0"/><path d="M430.87,174.83l.35-.82c-.11.27-.23.55-.35.82Z" fill="#fff" stroke-width="0"/><path d="M431.15,116.34c-.12-.29-.24-.57-.37-.86.13.28.25.57.37.86Z" fill="#fff" stroke-width="0"/><path d="M430.53,175.59l.34-.76c-.11.25-.22.51-.34.76Z" fill="#fff" stroke-width="0"/><path d="M430.13,176.46c.12-.25.23-.5.35-.76-.11.25-.23.51-.35.76Z" fill="#fff" stroke-width="0"/><path d="M429.67,177.44c.14-.28.27-.57.41-.86-.13.29-.26.58-.41.86Z" fill="#fff" stroke-width="0"/><path d="M429.25,178.31c.14-.28.28-.57.42-.86-.14.29-.28.58-.42.86Z" fill="#fff" stroke-width="0"/><path d="M429.59,112.9c-.12-.25-.25-.51-.38-.76.14.25.26.51.38.76Z" fill="#fff" stroke-width="0"/><path d="M429.21,112.13c-.1-.22-.21-.44-.33-.66.12.22.23.44.33.66Z" fill="#fff" stroke-width="0"/><path d="M428.88,111.47c-.13-.26-.27-.52-.41-.78.14.26.28.52.41.78Z" fill="#fff" stroke-width="0"/><path d="M428.37,180.02c.3-.57.59-1.14.88-1.71-.28.57-.58,1.15-.88,1.71Z" fill="#fff" stroke-width="0"/><path d="M428.14,110.07c-.12-.24-.25-.49-.39-.73.14.24.27.48.39.73Z" fill="#fff" stroke-width="0"/><path d="M426.96,182.55c.16-.27.31-.53.46-.8-.15.26-.3.53-.46.8Z" fill="#fff" stroke-width="0"/><path d="M427.07,108.14c-.23-.39-.46-.78-.7-1.17.24.39.47.78.7,1.17Z" fill="#fff" stroke-width="0"/><path d="M426.47,183.38c.16-.27.33-.55.49-.83-.16.27-.32.55-.49.83Z" fill="#fff" stroke-width="0"/><path d="M425.97,184.21c.17-.27.34-.55.5-.83-.16.28-.33.55-.5.83Z" fill="#fff" stroke-width="0"/><path d="M426.32,106.87c-.07-.11-.14-.23-.21-.34-.12-.21-.25-.42-.39-.63.21.32.41.65.6.97Z" fill="#fff" stroke-width="0"/><path d="M425.72,105.9c.13.21.26.42.39.63-.31-.5-.62-.99-.93-1.48.13.19.25.38.37.57.06.09.12.18.17.27Z" fill="#fff" stroke-width="0"/><path d="M425.46,185.03c.17-.27.35-.55.51-.82-.17.27-.34.55-.51.82Z" fill="#fff" stroke-width="0"/><path d="M425.54,105.63c-.12-.19-.24-.39-.37-.57-.06-.11-.13-.21-.2-.32.2.29.39.59.57.89Z" fill="#fff" stroke-width="0"/><path d="M424.97,104.73c.07.11.14.21.2.32-.1-.15-.2-.31-.31-.46h0s.01,0,.01,0c.03.05.06.09.09.14Z" fill="#fff" stroke-width="0"/><path d="M425.17,104.18l-.19.26c.06-.09.12-.18.17-.26h.02Z" fill="#fff" stroke-width="0"/><path d="M425.16,104.18h-.02c-.7-1.06-1.42-2.1-2.18-3.12-1.25-1.69-2.58-3.33-3.98-4.91-1.93-2.19-3.99-4.26-6.16-6.2-2.63-2.35-5.42-4.51-8.35-6.48-2.22-1.48-4.51-2.84-6.88-4.06h0c2.37,1.23,4.67,2.58,6.89,4.06,2.93,1.96,5.72,4.13,8.35,6.48,2.18,1.95,4.24,4.02,6.16,6.2,2.25,2.53,4.31,5.21,6.17,8.02,0,0,0,0,0,0h0Z" fill="#fff" stroke-width="0"/><path d="M425.16,104.18h0s0,0,0,0l-.09.12s.06-.09.08-.13h.01Z" fill="#fff" stroke-width="0"/><path d="M425.07,104.3l.09-.12c-.06.09-.12.17-.17.26l-.03.05h0s-.06.09-.06.09c.04-.07.08-.13.12-.19.02-.03.04-.06.06-.09Z" fill="#fff" stroke-width="0"/><path d="M425.15,104.18s-.06.08-.08.13c-.02.03-.04.06-.06.09l-.1.14c.07-.12.15-.24.23-.36h.01Z" fill="#fff" stroke-width="0"/><path d="M425.01,104.39c-.04.06-.08.13-.12.19t0-.01l.03-.05.1-.14Z" fill="#fff" stroke-width="0"/><path d="M425.14,104.17c-.08.12-.16.24-.23.36l-.03.05h0c-6.9-10.55-16.39-19.17-27.56-25.03.07-.03.13-.06.19-.09,0,0,0,0,0,0,.01,0,.02-.02.04-.02l.03-.02h.01c2.36,1.23,4.66,2.59,6.87,4.06,2.93,1.96,5.72,4.13,8.35,6.48,2.18,1.95,4.24,4.02,6.16,6.2,1.4,1.58,2.74,3.22,3.99,4.91.75,1.02,1.48,2.05,2.18,3.11Z" fill="#fff" stroke-width="0"/><path d="M424.95,104.5s0,0,0,0h0Z" fill="#fff" stroke-width="0"/><path d="M424.95,104.5s-.04.06-.06.09c0,0,0,0,0,0h0s.06-.09.06-.09Z" fill="#fff" stroke-width="0"/><path d="M424.39,186.66c.36-.54.71-1.08,1.06-1.63-.35.55-.7,1.09-1.06,1.63Z" fill="#fff" stroke-width="0"/><path d="M424.89,104.58h0s0,.01,0,.01c0,0-.01-.01-.01-.01h0s0-.01,0-.01t0,.01Z" fill="#fff" stroke-width="0"/><path d="M424.88,104.57h0c-2.14-3.25-4.56-6.38-7.27-9.35-5.81-6.37-12.67-11.67-20.3-15.68,0,0,0,0,0,0,11.17,5.86,20.66,14.48,27.56,25.03Z" fill="#fff" stroke-width="0"/><path d="M424.87,104.58h0c-2.14-3.25-4.56-6.39-7.27-9.36-5.8-6.36-12.66-11.67-20.29-15.68,7.63,4.01,14.49,9.31,20.3,15.68,2.71,2.97,5.13,6.1,7.27,9.36Z" fill="#fff" stroke-width="0"/><path d="M423.87,187.42c.18-.25.35-.51.52-.76-.17.25-.35.51-.52.76Z" fill="#fff" stroke-width="0"/><path d="M422.71,189.06c.19-.26.38-.53.57-.79-.18.27-.38.53-.57.79Z" fill="#fff" stroke-width="0"/><path d="M420.93,191.39c.62-.77,1.2-1.55,1.78-2.34-.57.79-1.17,1.57-1.78,2.34Z" fill="#fff" stroke-width="0"/><path d="M419.68,192.92c.42-.51.84-1.02,1.25-1.53-.41.51-.82,1.02-1.25,1.53Z" fill="#fff" stroke-width="0"/><path d="M418.98,96.15c1.4,1.58,2.73,3.22,3.98,4.91-1.26-1.69-2.59-3.33-3.99-4.91-1.93-2.19-3.99-4.26-6.16-6.2-2.63-2.35-5.42-4.51-8.35-6.48-2.22-1.47-4.51-2.83-6.87-4.06,2.37,1.23,4.66,2.58,6.88,4.06,2.93,1.96,5.72,4.13,8.35,6.48,2.18,1.95,4.24,4.02,6.16,6.2Z" fill="#fff" stroke-width="0"/><path d="M419.04,193.67c.22-.25.43-.5.64-.75-.21.25-.42.5-.64.75Z" fill="#fff" stroke-width="0"/><path d="M415.67,197.32c1.17-1.18,2.29-2.4,3.37-3.65-1.07,1.25-2.2,2.47-3.37,3.65Z" fill="#fff" stroke-width="0"/><path d="M413.71,199.24c.64-.6,1.27-1.22,1.88-1.83-.62.62-1.24,1.23-1.88,1.83Z" fill="#fff" stroke-width="0"/><path d="M412.84,200.16s0,0,0,0c-.3.3-.6.55-.9.81.01-.02.02-.04.02-.06h0c.29-.24.57-.5.85-.76t.02.01h0Z" fill="#fff" stroke-width="0"/><path d="M412.83,200.14s0,.01,0,.02h0s0,0-.02,0l.02-.02Z" fill="#fff" stroke-width="0"/><path d="M412.83,200.14l-.02.02s-.04-.03-.04-.05c.01,0,.03,0,.05.03h0Z" fill="#fff" stroke-width="0"/><path d="M412.79,200.1s.04.02.04.04c-.02-.03-.04-.03-.05-.03h.01Z" fill="#fff" stroke-width="0"/><path d="M412.79,200.1h-.01s-.01,0-.02,0c0,0,0-.01.01-.01,0,0,.01,0,.02.01Z" fill="#fff" stroke-width="0"/><path d="M412.78,200.11s.03.03.04.05c-.28.26-.56.52-.85.76,0-.02,0-.04,0-.07,0-.02.01-.03.01-.05.26-.23.52-.48.78-.7,0,0,.01,0,.02.01Z" fill="#fff" stroke-width="0"/><path d="M412.77,200.08h0s0,.01-.01.02c-.17-.14-.33-.29-.49-.46-.08.4-.18.78-.29,1.16,0,.01-.02.02-.02.02.11-.4.22-.79.3-1.2.18.17.34.33.51.47Z" fill="#fff" stroke-width="0"/><path d="M412.27,199.64c.16.16.32.32.49.46-.26.22-.52.47-.78.7.11-.38.21-.76.29-1.16Z" fill="#fff" stroke-width="0"/><path d="M411.98,200.8s0,.03-.01.05l-.02.02s0-.03,0-.04c0,0,.02-.01.02-.02Z" fill="#fff" stroke-width="0"/><path d="M411.97,200.85s0,.05,0,.07h0s-.02.03-.03.04h0s.02-.06.03-.09l.02-.02Z" fill="#fff" stroke-width="0"/><path d="M411.96,200.82s0,.03,0,.04c0,0,0,0,0,0,0-.01,0-.03,0-.04h0s0,0,0,0Z" fill="#fff" stroke-width="0"/><path d="M411.95,200.82h0c-.24.22-.49.44-.74.65.25-.22.49-.43.74-.65Z" fill="#fff" stroke-width="0"/><path d="M411.95,200.83s0,.03,0,.04c-1.18,1.05-2.39,2.05-3.64,3.02-.08.06-.16.12-.24.18-.49.37-1,.74-1.5,1.1-.18.13-.36.26-.54.38,1.79-1.28,3.52-2.64,5.19-4.08.25-.21.49-.43.74-.65Z" fill="#fff" stroke-width="0"/><path d="M411.95,200.86s-.02.06-.03.08c.01-.02.02-.05.02-.08,0,0,0,0,0,0Z" fill="#fff" stroke-width="0"/><path d="M411.95,200.87s-.01.06-.02.08h0c-1.17,1.02-2.38,2-3.61,2.94,1.25-.97,2.46-1.97,3.64-3.02Z" fill="#fff" stroke-width="0"/><polygon points="411.93 200.94 411.93 200.95 411.92 200.95 411.93 200.94" fill="#fff" stroke-width="0"/><path d="M406.57,205.17c-.26.19-.52.38-.79.56.08-.06.16-.12.24-.18.18-.12.37-.25.54-.38Z" fill="#fff" stroke-width="0"/><path d="M397.58,79.4s0,0,0,0h-.01,0Z" fill="#fff" stroke-width="0"/><path d="M397.58,79.41l-.03.02s.02-.02.03-.02Z" fill="#fff" stroke-width="0"/><path d="M397.57,79.4s0,0,0,0c-.01,0-.02,0-.03.02h0s.02-.02.03-.02Z" fill="#fff" stroke-width="0"/><path d="M397.55,79.42s-.03.02-.04.02c0,0,0,0,0,0-.07.03-.13.07-.2.1,0,0,0,0,0,0h0s0,0-.01,0c.09-.04.16-.09.24-.12h0Z" fill="#fff" stroke-width="0"/><path d="M397.5,79.44h0c-.06.04-.12.07-.19.1,0,0,0,0,0,0,0,0,0,0,0,0,.07-.03.13-.07.2-.1Z" fill="#fff" stroke-width="0"/><path d="M357.4,121.18c4.04-1.04,8.28-1.04,12.32,0-8.26,2.14-14.83,8.38-17.38,16.52v.03c-1.48,4.76-1.48,9.86,0,14.62v.03c2.55,8.14,9.12,14.39,17.38,16.53-13.18,3.41-26.63-4.52-30.03-17.7-3.41-13.18,4.52-26.63,17.7-30.03Z" fill="#fff" stroke-width="0"/><path d="M302.27,103.69s.03-.03.04-.04c-.12.18-.25.36-.36.54-.22.31-.43.62-.63.94.03-.05.06-.11.1-.16.17-.26.35-.52.53-.78.1-.17.21-.34.33-.5Z" fill="#fff" stroke-width="0"/><path d="M302.2,103.78s.05-.06.07-.08c-.11.16-.23.33-.33.5-.18.25-.36.51-.53.78.05-.08.09-.15.14-.22.01-.01.02-.03.03-.04.01-.02.02-.04.03-.05.08-.12.16-.23.24-.35.03-.05.07-.09.1-.14.05-.09.11-.18.16-.26,0,0,0-.01.01-.01.03-.04.06-.08.08-.12,0,0,0,0,0-.01Z" fill="#fff" stroke-width="0"/><path d="M302.2,103.79s-.06.08-.08.12h0s.06-.08.09-.12Z" fill="#fff" stroke-width="0"/><path d="M302.12,103.91s0,0-.01.01c0,0,0-.01,0-.01h0Z" fill="#fff" stroke-width="0"/><path d="M302.11,103.92c-.06.09-.11.17-.16.26-.03.05-.07.09-.1.14.03-.05.06-.09.09-.13v-.02c.06-.08.11-.16.17-.25Z" fill="#fff" stroke-width="0"/><path d="M301.93,104.17v.02s-.06.09-.08.13c-.08.12-.16.23-.24.35.1-.16.21-.32.32-.48v-.02Z" fill="#fff" stroke-width="0"/><path d="M301.93,104.17v.02c-.11.16-.22.32-.32.48-.02.02-.03.04-.04.06,0,.01-.01.02-.02.03-.02.03-.03.05-.05.07-.07.1-.13.2-.19.29.19-.32.4-.63.62-.95Z" fill="#fff" stroke-width="0"/><path d="M214.99,81.41c-.23.13-.46.27-.69.41h0c.22-.13.45-.27.68-.41ZM190.42,105.13h0c.05-.08.1-.15.14-.23l.06-.09-.2.32.45-.69c.05-.08.11-.16.16-.24.06-.1.11-.19.17-.27t0,0s.06-.09.09-.13c.04-.05.07-.09.1-.14-.03.04-.06.08-.09.13.03-.04.06-.09.09-.13-.03.04-.06.08-.09.12-.03.04-.06.09-.09.13h0s-.04.06-.06.09c-.01.02-.03.04-.04.05l-.09.12-.02.02c-.21.31-.42.62-.6.93l.23-.36c-.08.12-.15.24-.22.37ZM183.46,118.92h0s0,.01,0,.01c.04-.11.08-.21.12-.32l1.58-3.8.02-.05c-.06.13-.12.26-.17.39-.08.17-.16.34-.23.51-.07.15-.13.31-.2.47-.09.2-.17.41-.26.62,0,0,0,0,0,0-.06.14-.11.28-.17.42-.24.57-.46,1.15-.68,1.74h0ZM301.9,89.97l.03-.02c-1.62,1.43-3.16,2.95-4.64,4.53-.27.29-.51.57-.79.86s-.51.51-.73.81-.44.51-.66.75c-.56.64-1.1,1.3-1.63,1.97s-1.02,1.27-1.53,1.93c-.03.04-.05.07-.07.1-.51.69-1.02,1.38-1.49,2.08-.27.4-.55.79-.81,1.19-.07.1-.14.2-.2.31-.03.04-.05.08-.08.12-.09.14-.23.35-.34.51-.03.03-.04.06-.06.08-.44.7-.87,1.39-1.3,2.11s-.86,1.47-1.27,2.23c-.34.6-.67,1.23-.99,1.85l-.33.66c-.26.51-.51,1.02-.74,1.53-.07.15-.15.3-.22.46s-.18.4-.27.61c-.65,1.41-1.23,2.85-1.78,4.31-.3.79-.59,1.59-.86,2.39-.03.06-.04.11-.06.17-4.26-5.17-9.84-9.08-16.15-11.31-2-.71-4.05-1.24-6.14-1.59-4.08-.7-8.25-.7-12.32,0-2.1.35-4.16.87-6.16,1.59-5.8,2.05-11,5.53-15.1,10.11-.36.4-.72.81-1.06,1.22-5.5,6.61-8.5,14.94-8.48,23.53.02,14.55-4.27,28.77-12.32,40.87-1.87,2.82-3.92,5.5-6.16,8.02-5.31,6.01-11.55,11.13-18.49,15.16-3.01,1.74-6.13,3.27-9.35,4.58-4.69,1.9-9.56,3.3-14.55,4.17h-.04c-1.71.32-3.44.56-5.18.74-.33.03-.66.07-.98.08-.23,0-.47.06-.72.07-1.55.14-3.11.22-4.68.25h-1.47c-1.81,0-3.6-.07-5.38-.21-.26,0-.51,0-.78-.06-.57-.04-1.14-.09-1.7-.15h-.03c-.58-.07-1.17-.14-1.75-.22-.4-.04-.81-.1-1.2-.17-.69-.1-1.37-.21-2.05-.33-.35-.06-.69-.12-1.03-.18-.33-.07-.66-.13-.99-.2-.85-.18-1.7-.36-2.54-.57-.47-.1-.93-.22-1.4-.34-.33-.08-.64-.16-.97-.26-.48-.14-.96-.27-1.44-.43-.22-.06-.42-.12-.64-.19-.45-.13-.92-.28-1.37-.44-1.46-.48-2.91-1.02-4.34-1.59-10.69-4.31-20.22-11.06-27.84-19.72-1.65-1.88-3.21-3.85-4.68-5.89-20.02-27.99-18.08-66.09,4.68-91.9,5.31-6.01,11.55-11.13,18.49-15.16,7.62-4.4,15.97-7.4,24.65-8.86,2.03-.34,4.07-.61,6.16-.77.26,0,.51-.04.78-.06,1.78-.14,3.57-.2,5.38-.2,2.08,0,4.13.08,6.16.26.25,0,.51.04.76.07.45.04.9.08,1.36.13l1.36.17c.9.11,1.79.24,2.68.4l.7.12h.03c13.49,2.39,26.05,8.52,36.23,17.68-1.9,1.7-3.72,3.49-5.42,5.38l-.74.82c-2.24,2.53-4.3,5.21-6.16,8.02-1.02,1.53-2.03,3.14-2.92,4.76-.72,1.29-1.41,2.59-2.03,3.93-.11.22-.22.45-.33.69-1.23,2.58-2.29,5.23-3.19,7.94-4.09-4.96-9.4-8.76-15.41-11.04-.25-.1-.51-.19-.74-.27-.51-.18-.99-.34-1.49-.51-.25-.08-.51-.15-.75-.22l-.17-.04c-.31-.1-.62-.18-.93-.24-.04-.02-.08-.03-.12-.03-.34-.1-.7-.18-1.05-.24s-.62-.13-.92-.18-.48-.1-.73-.14c-2.03-.34-4.09-.51-6.16-.51-1.8,0-3.59.14-5.37.41-.26.03-.53.07-.79.11-2.1.35-4.16.87-6.16,1.59-19.25,6.81-29.33,27.94-22.53,47.2,3.73,10.52,12,18.8,22.53,22.52,2,.72,4.06,1.25,6.16,1.59.26.04.53.08.79.11,1.77.28,3.57.42,5.37.41,2.06,0,4.12-.16,6.16-.51.25-.04.51-.08.73-.14s.62-.11.92-.18.71-.15,1.05-.25c.04.01.08.01.12,0,.32-.07.63-.15.93-.24l.17-.05c.26-.07.51-.14.75-.22.51-.15,1.02-.32,1.49-.51.25-.08.51-.18.74-.27,13.88-5.26,23.27-18.31,23.86-33.15,0-.03,0-.06,0-.1v-1.34c0-.86,0-1.73.06-2.58-.01-.1-.01-.2,0-.3,0-.86.07-1.72.14-2.59-.01-.07-.01-.14,0-.22.06-.83.14-1.66.23-2.48s.2-1.78.34-2.66.26-1.68.41-2.52c.16-.95.36-1.88.57-2.81.16-.78.36-1.56.55-2.33.01-.05.02-.1.04-.15.22-.86.45-1.7.71-2.54s.51-1.6.75-2.39c.01-.06.03-.11.06-.17.12-.36.24-.71.38-1.05.15-.45.32-.9.48-1.34.54-1.46,1.15-2.9,1.78-4.31l.27-.61c.18-.38.37-.77.56-1.15.12-.27.26-.55.4-.82l.33-.66c.32-.62.64-1.25.99-1.85.41-.76.83-1.53,1.27-2.23s.86-1.41,1.3-2.11c0-.03.04-.06.06-.08.2-.32.41-.63.63-.94.11-.19.23-.37.36-.54s.25-.37.37-.56c.03,0,.04-.07.07-.09.51-.7.99-1.4,1.49-2.08.03-.03.06-.06.07-.1.51-.66,1.02-1.3,1.53-1.93s1.07-1.33,1.63-1.97l.66-.75c.23-.27.48-.53.72-.81s.51-.57.8-.86c1.47-1.59,3.02-3.1,4.64-4.53l.74-.66c.51-.45,1.02-.89,1.56-1.33.63-.51,1.26-1.02,1.9-1.53l.22-.16c.51-.4,1.06-.79,1.59-1.18.15-.12.32-.23.48-.36l.41-.28c.48-.35.97-.67,1.46-1.02.85-.56,1.71-1.1,2.59-1.64.45-.27.9-.55,1.37-.81.56-.33,1.14-.64,1.73-.96s1.05-.56,1.59-.83,1.18-.61,1.78-.89,1.26-.59,1.91-.88,1.17-.51,1.76-.75,1.25-.51,1.88-.74c.51-.21,1.08-.41,1.63-.61,2.03-.73,4.11-1.36,6.23-1.9.62-.15,1.25-.32,1.88-.45.81-.19,1.62-.37,2.45-.51.51-.11,1.05-.21,1.59-.29l.23-.04c.51-.1,1.04-.18,1.56-.25l.51-.08c.59-.08,1.16-.15,1.75-.2.04,0,.08,0,.12,0,.55-.07,1.1-.12,1.66-.16.18-.03.36-.04.55-.06h.07c1.02-.1,2.03-.15,3.05-.19.39,0,.77-.04,1.15-.04h1.91c2.08,0,4.13.08,6.16.26s4.13.43,6.16.77c13.76,2.3,26.59,8.47,36.97,17.79Z" fill="#fff" stroke-width="0"/><path d="M301.61,104.67s-.02.04-.03.05h-.01s.03-.03.04-.05Z" fill="#fff" stroke-width="0"/><path d="M301.55,104.75c-.05.08-.09.15-.14.22.03-.05.06-.1.09-.15.02-.03.03-.05.05-.07Z" fill="#fff" stroke-width="0"/><path d="M295.67,115.68c.15-.36.31-.71.47-1.06-.63,1.41-1.24,2.85-1.78,4.31h0c.14-.37.27-.73.42-1.09.18-.45.36-.89.54-1.33.11-.28.23-.55.35-.83Z" fill="#fff" stroke-width="0"/><path d="M296.14,114.62c-.16.35-.32.71-.47,1.06-.12.27-.24.55-.35.83,0,0,0,0,0,0,.11-.28.23-.56.35-.83h0s0-.01,0-.02c.15-.35.31-.7.47-1.05Z" fill="#fff" stroke-width="0"/><path d="M295.32,116.52s0,0,0,0c-.19.44-.37.88-.54,1.33l.38-.95c.05-.13.1-.25.16-.38Z" fill="#fff" stroke-width="0"/><path d="M295.16,116.89l-.38.95c-.14.36-.28.73-.42,1.09v-.02c.25-.68.52-1.36.8-2.02Z" fill="#fff" stroke-width="0"/><path d="M290.01,103.58c.13-.19.27-.39.41-.58-.27.4-.55.8-.81,1.22-.1.14-.19.26-.27.4.05-.07.09-.14.13-.22.05-.06.09-.13.14-.19,0,0,0,0,0-.01.12-.18.23-.37.36-.55.02-.02.03-.04.04-.06h0Z" fill="#fff" stroke-width="0"/><path d="M290.23,103.25c-.08.11-.15.22-.22.33h0c.08-.11.15-.22.23-.33Z" fill="#fff" stroke-width="0"/><path d="M290,103.58s-.02.04-.04.06c-.13.18-.24.36-.36.53.13-.2.26-.39.4-.59Z" fill="#fff" stroke-width="0"/><path d="M289.97,103.64c-.12.18-.24.37-.36.55v-.02c.11-.18.23-.36.36-.53Z" fill="#fff" stroke-width="0"/><path d="M289.61,104.17v.02s0,0,0,.01c-.05.07-.09.13-.14.19-.05.07-.09.13-.14.2.09-.14.18-.28.27-.42Z" fill="#fff" stroke-width="0"/><path d="M289.4,104.47s-.05.07-.07.1c.02-.03.04-.06.06-.09,0,0,0,0,.01-.01Z" fill="#fff" stroke-width="0"/><path d="M284.99,112.15c-.04.09-.09.18-.13.27-.07.12-.13.24-.19.37.1-.21.21-.42.32-.64Z" fill="#fff" stroke-width="0"/><path d="M284.86,112.42l-.18.38c-.11.23-.22.46-.32.69-.02.03-.03.05-.04.08,0,0,0,.01-.01.02-.07.12-.12.25-.19.37.06-.13.13-.26.18-.38,0,0,0-.01,0-.02.11-.25.23-.5.36-.76h0c.06-.13.12-.25.19-.37Z" fill="#fff" stroke-width="0"/><path d="M284.67,112.8c-.11.23-.21.46-.32.69.1-.23.2-.46.32-.69Z" fill="#fff" stroke-width="0"/><path d="M284.13,113.95c.07-.12.12-.25.19-.37-.07.14-.14.29-.22.43.01-.02.02-.05.03-.07Z" fill="#fff" stroke-width="0"/><path d="M284.13,113.95c.06-.13.13-.26.18-.38-.06.12-.12.25-.18.38Z" fill="#fff" stroke-width="0"/><path d="M283.82,114.62c-.63,1.41-1.23,2.85-1.78,4.31h0c.14-.37.27-.73.42-1.09.11-.27.21-.54.33-.81.33-.81.68-1.61,1.04-2.4Z" fill="#fff" stroke-width="0"/><path d="M282.78,117.02c-.11.27-.22.54-.33.81-.15.36-.28.73-.43,1.09.24-.64.49-1.28.75-1.91Z" fill="#fff" stroke-width="0"/><path d="M238.92,124.6c5.84-3.92,13.08-5.16,19.88-3.4-8.26,2.14-14.83,8.38-17.38,16.52v.03c-1.48,4.76-1.48,9.86,0,14.62v.03c2.56,8.13,9.13,14.37,17.38,16.5-12.72,3.27-25.78-3.99-29.7-16.53-.74-2.38-1.11-4.86-1.11-7.33s.37-4.94,1.11-7.33c.84-2.68,2.13-5.18,3.79-7.4,1.66-2.22,3.7-4.16,6.03-5.73Z" fill="#fff" stroke-width="0"/><path d="M214.99,81.41c-.23.14-.46.27-.68.41h0c.23-.14.46-.28.69-.41Z" fill="#fff" stroke-width="0"/><path d="M191.4,103.65s-.06.09-.1.14c0,0,0-.01,0-.01.03-.05.06-.09.09-.13Z" fill="#fff" stroke-width="0"/><path d="M191.39,103.65s-.06.09-.09.13c0,0,0,0,0,.01-.03.04-.06.08-.09.13h0s0,0,0,0c.04-.05.07-.09.09-.13t0,0s.06-.08.09-.12Z" fill="#fff" stroke-width="0"/><path d="M191.3,103.78s0,0,0,0c-.03.04-.06.09-.09.13.03-.05.06-.09.09-.13Z" fill="#fff" stroke-width="0"/><path d="M191.3,103.78s-.06.09-.09.13h0s.06-.09.09-.13Z" fill="#fff" stroke-width="0"/><path d="M191.21,103.92s0,0,0,0h0s0,0,0,0Z" fill="#fff" stroke-width="0"/><path d="M191.21,103.92c-.06.09-.12.18-.17.27-.06.08-.11.16-.16.24l.08-.12.04-.06h.01s.01-.03.02-.04c.01-.01.02-.02.02-.03.05-.09.11-.17.16-.26,0,0,.01-.01.01-.02h0Z" fill="#fff" stroke-width="0"/><path d="M191.21,103.91s0,0,0,0c-.02.03-.04.06-.06.08.02-.03.04-.06.06-.09Z" fill="#fff" stroke-width="0"/><path d="M191.21,103.92h0s0,.02-.01.02l-.05.06s.04-.05.06-.08Z" fill="#fff" stroke-width="0"/><path d="M191.02,104.22l-.02.03h-.01s-.01.02-.02.03h0s.02-.03.03-.05c.02-.02.02-.03.03-.04,0,0,0,0,0,0,.03-.05.06-.09.08-.13.01-.02.03-.04.04-.05l.05-.06c-.06.09-.11.17-.16.26,0,.01-.01.02-.02.03Z" fill="#fff" stroke-width="0"/><path d="M191.12,104.05s-.06.09-.08.13c0,0,0,0,0,0h0v-.02l.09-.12Z" fill="#fff" stroke-width="0"/><path d="M191.03,104.18h0s-.02.03-.03.05c0-.02.02-.03.03-.04h0Z" fill="#fff" stroke-width="0"/><path d="M191.03,104.18h0s-.02.03-.03.05c-.01.02-.02.03-.03.04-.01,0-.02.02-.02.02h0s0,.01,0,.02c-.01.01-.02.03-.03.04l.09-.15.02-.02h0Z" fill="#fff" stroke-width="0"/><path d="M191.02,104.22s-.01.02-.02.03l.02-.03Z" fill="#fff" stroke-width="0"/><path d="M191.01,104.19l-.09.15c-.05.07-.1.15-.14.22-.02.03-.04.05-.05.08,0,0-.01.01-.01.02h-.01s0,.03-.01.03-.01.01-.01.02c0,.01-.01.02-.02.03,0,.02-.02.03-.03.04l-.23.36c.18-.31.39-.62.6-.93Z" fill="#fff" stroke-width="0"/><path d="M190.99,104.26l-.04.06s.02-.03.02-.04l.02-.02Z" fill="#fff" stroke-width="0"/><path d="M190.98,104.27s-.02.03-.02.04c-.06.08-.11.16-.16.23l.11-.17.05-.07s0,0,0-.01h0s.01-.02.02-.02Z" fill="#fff" stroke-width="0"/><path d="M190.98,104.27h0s-.01.02-.02.02c0,0,0-.02.02-.02Z" fill="#fff" stroke-width="0"/><path d="M190.96,104.29h0s0,0,0,0Z" fill="#fff" stroke-width="0"/><path d="M190.95,104.31l-.08.12c-.06.07-.1.15-.16.22.03-.04.05-.07.07-.11.05-.08.11-.16.16-.23Z" fill="#fff" stroke-width="0"/><path d="M190.95,104.3l-.05.07c-.05.06-.09.12-.13.18.05-.07.1-.15.14-.22.01-.01.02-.03.03-.04Z" fill="#fff" stroke-width="0"/><path d="M190.9,104.38l-.11.17s-.05.07-.07.11t0,0s0,.02-.01.02-.01.01-.01.02c-.03.04-.05.08-.07.11l-.06.09c.04-.06.07-.12.11-.18v-.02s.02-.01.02-.02c.01,0,.01-.02.02-.02h0s.01-.02.01-.03c.02-.03.04-.05.05-.08.04-.06.08-.12.13-.18Z" fill="#fff" stroke-width="0"/><path d="M190.88,104.44l-.45.69.2-.32s.05-.08.07-.11c0,0,0-.01.01-.02.01,0,.01-.01.02-.02h0c.06-.08.1-.15.16-.22Z" fill="#fff" stroke-width="0"/><path d="M190.78,104.56s-.03.05-.05.08c.02-.03.03-.05.05-.08Z" fill="#fff" stroke-width="0"/><path d="M190.73,104.63s0,.01-.01.02c0,0,0-.01.01-.02Z" fill="#fff" stroke-width="0"/><path d="M190.72,104.66h0s0,0,0,0t0,0Z" fill="#fff" stroke-width="0"/><path d="M190.72,104.66s0,.02-.02.02c0,0,.01-.02.01-.02h0Z" fill="#fff" stroke-width="0"/><path d="M190.72,104.65h0s0,.01,0,.01h.01Z" fill="#fff" stroke-width="0"/><path d="M190.71,104.66s0,.02-.02.02c0,0,0-.02.01-.02h0Z" fill="#fff" stroke-width="0"/><path d="M190.71,104.68s0,.01-.01.02c0,0,0-.01.01-.02Z" fill="#fff" stroke-width="0"/><path d="M190.69,104.7v.02s-.02,0-.02,0c.01-.01.02-.02.02-.03Z" fill="#fff" stroke-width="0"/><path d="M190.68,104.72c-.04.06-.08.12-.11.18l-.03.05c-.04.06-.08.12-.12.18.07-.12.15-.24.22-.37.01-.02.02-.03.03-.04h.01Z" fill="#fff" stroke-width="0"/><path d="M190.56,104.9c-.05.08-.1.15-.14.23.04-.06.07-.12.11-.18l.03-.05Z" fill="#fff" stroke-width="0"/><path d="M190.53,104.95c-.04.06-.08.12-.11.18h0c.04-.06.08-.12.12-.18Z" fill="#fff" stroke-width="0"/><path d="M185.17,114.76l-.02.05c-.06.11-.11.22-.15.34.06-.13.11-.26.17-.39Z" fill="#fff" stroke-width="0"/><path d="M185.15,114.81l-1.58,3.8c.49-1.29,1.02-2.56,1.58-3.8Z" fill="#fff" stroke-width="0"/><path d="M185,115.15c.05-.12.1-.23.15-.34-.55,1.25-1.09,2.51-1.58,3.8.1-.26.19-.52.29-.78.36-.9.74-1.8,1.13-2.68Z" fill="#fff" stroke-width="0"/><path d="M184.77,115.67c.08-.17.15-.35.23-.51-.39.88-.77,1.78-1.13,2.68.09-.22.17-.44.26-.66.04-.1.08-.19.12-.28.02-.05.04-.09.06-.14h0c.09-.21.17-.42.26-.62.07-.16.13-.32.2-.47Z" fill="#fff" stroke-width="0"/><path d="M184.57,116.14c-.09.2-.17.41-.26.62.09-.21.17-.41.26-.62Z" fill="#fff" stroke-width="0"/><path d="M184.31,116.75h0s0,0,0,0c0,0,0,0,0,0Z" fill="#fff" stroke-width="0"/><path d="M184.31,116.76s-.04.09-.06.14c.02-.05.03-.09.05-.14h0Z" fill="#fff" stroke-width="0"/><path d="M184.3,116.76s-.04.09-.05.14c-.04.09-.08.19-.12.28.06-.14.11-.28.17-.42Z" fill="#fff" stroke-width="0"/><path d="M184.14,117.18c-.09.22-.18.44-.26.66-.14.36-.28.72-.42,1.08.22-.58.44-1.16.68-1.74Z" fill="#fff" stroke-width="0"/><path d="M183.87,117.84c-.1.26-.2.52-.29.78-.03.05-.05.11-.06.16l-.06.14c.14-.36.27-.72.42-1.08Z" fill="#fff" stroke-width="0"/><path d="M183.58,118.62c-.04.11-.08.21-.12.32h0c.02-.05.04-.11.06-.16.02-.05.04-.11.06-.16Z" fill="#fff" stroke-width="0"/><path d="M183.46,118.92l.06-.14c-.02.05-.04.11-.06.16h0v-.02Z" fill="#fff" stroke-width="0"/><path d="M147.89,168.91c-2.01.52-4.08.78-6.16.78-.51,0-.98,0-1.45-.04-7.79-.45-14.9-4.58-19.17-11.12-2.68-4.09-4.03-8.78-4.03-13.47s1.34-9.38,4.03-13.47c2.14-3.27,4.98-5.93,8.26-7.83,3.28-1.91,7.01-3.05,10.91-3.28.48,0,.96-.04,1.45-.04,2.08,0,4.14.26,6.16.78-5.92,1.52-11.06,5.18-14.43,10.27-2.7,4.11-4.05,8.83-4.05,13.54s1.35,9.43,4.05,13.54c1.68,2.56,3.81,4.76,6.25,6.52,2.45,1.75,5.21,3.06,8.18,3.83Z" fill="#fff" stroke-width="0"/><path d="M128.85,217.85c.34.06.67.12,1,.17-1.02-.16-2.04-.34-3.05-.55.34.07.67.14,1.01.2s.69.12,1.03.18Z" fill="#fff" stroke-width="0"/><path d="M38.27,216.59l.19.06h.03l.18.04c-.06-.02-.11-.04-.18-.06-.03,0-.05,0-.07,0-.05-.01-.1-.03-.15-.04ZM55.5,46.46h-.03v147.87c.19,13.62-10.68,24.81-24.29,25-13.61.19-24.81-10.68-25-24.29,0-.24,0-.47,0-.71V46.46c0-13.62,11.04-24.66,24.66-24.66s24.66,11.04,24.66,24.66Z" fill="#fff" stroke-width="0"/><path d="M38.66,216.69l-.18-.04h0s-.05-.02-.07-.02c.03,0,.05,0,.07,0,.07.02.12.04.18.06Z" fill="#fff" stroke-width="0"/><path d="M38.48,216.65h-.03l-.19-.06c.05.02.1.03.15.04.02,0,.05.01.07.02Z" fill="#fff" stroke-width="0"/></svg>