<?xml version="1.0" encoding="UTF-8"?><svg id="Capa_1" xmlns="http://www.w3.org/2000/svg" viewBox="0 0 666.56 175.89"><path d="M125.2,15.51h0c19.29,0,34.96,15.67,34.96,34.96h0c0,19.29-15.67,34.96-34.96,34.96h-34.96v-34.96c0-19.29,15.67-34.96,34.96-34.96Z" fill="#fff" stroke-width="0"/><path d="M90.24,97.01h34.96c19.29,0,34.96,15.67,34.96,34.96h0c0,19.29-15.67,34.96-34.96,34.96h0c-19.29,0-34.96-15.67-34.96-34.96v-34.96h0Z" fill="#fff" stroke-width="0"/><path d="M78.66,85.42h-34.96c-19.29,0-34.96-15.67-34.96-34.96h0c0-19.29,15.67-34.96,34.96-34.96h0c19.29,0,34.96,15.67,34.96,34.96v34.96h0Z" fill="#fff" stroke-width="0"/><path d="M43.7,166.93h0c-19.29,0-34.96-15.67-34.96-34.96h0c0-19.29,15.67-34.96,34.96-34.96h34.96v34.96c0,19.29-15.67,34.96-34.96,34.96h0Z" fill="#fff" stroke-width="0"/><rect x="267.79" y="55.77" width="49.37" height="111.15" fill="#fff" stroke-width="0"/><path d="M465.52,54.69h-4.98c-18.88,0-34.19,18.06-34.19,18.06,0,0-15.3-18.06-34.19-18.06h-4.98c-24.57,0-44.49,19.92-44.49,44.49h0v67.75h44.49v-59.29c0-4.67,3.78-8.46,8.46-8.46h0c4.67,0,8.46,3.78,8.46,8.46v59.29h44.49v-59.29c0-4.67,3.78-8.46,8.46-8.46h0c4.67,0,8.46,3.78,8.46,8.46v59.29h44.49v-67.75h0c0-24.57-19.92-44.49-44.49-44.49h0Z" fill="#fff" stroke-width="0"/><path d="M234.31,110.24V15.51h-49.37v102.94c0,26.78,21.71,48.48,48.48,48.48h22.7v-44.63h-9.76c-6.65,0-12.05-5.39-12.05-12.05h0Z" fill="#fff" stroke-width="0"/><ellipse cx="293.79" cy="28.13" rx="26.16" ry="19.75" fill="#fff" stroke-width="0"/><path d="M593.61,54.69c-35.35,0-64.02,25.12-64.02,56.12s19.75,58.36,64.02,56.12c3.51-.18,6.94-.57,10.29-1.16v-38.31c-2.95,1.74-6.48,2.81-10.29,3.01-12.84.66-18.57-7.4-18.57-16.54s8.31-16.54,18.57-16.54,18.57,7.4,18.57,16.54h.05v53h45.4v-56.12c0-30.99-28.66-56.12-64.02-56.12h0Z" fill="#fff" stroke-width="0"/></svg>