<?xml version="1.0" encoding="UTF-8"?><svg id="Capa_1" xmlns="http://www.w3.org/2000/svg" viewBox="0 0 669.66 156.94"><path d="M315.18,16.4c-11.18-1.99-18.09,11.19-24.22,24.86-5.46,12.17-11.36,28.23-16.58,42.4-1.1,3-2.3,6.25-3.51,9.52-3.74-21.02-9.96-38.84-18.37-52.42-11.13-17.97-25.98-27.99-40.77-27.47-5.24.18-10.5,1.76-15.27,4.79v-3.55l-19.13-3.57v49.05h.04c-.02.76-.04,1.52-.04,2.3v84.64h19.13V62.31c0-17.55,6.4-29.57,15.93-29.9h.43c15.13,0,38,27.61,42.32,89.9.71,10.16,6.31,12.47,9.59,12.93.57.08,1.11.12,1.64.12,8.09,0,11.94-9.14,15.35-17.26,3.08-7.33,6.75-17.29,10.62-27.83,4.62-12.57,9.41-25.58,14.01-36.44,1.18-2.78,2.24-5.17,3.2-7.22.2,3.6.33,8.08.33,13.66v86.69h19.13V60.27c0-26.85-2.21-41.79-13.84-43.87h.01Z" fill="#fff" stroke-width="0"/><path d="M400.38,13.75h-17.97v133.21h92.51v-17.97h-74.54V13.75Z" fill="#fff" stroke-width="0"/><path d="M354.18,13.75c-6.56,0-11.53,4.97-11.53,11.34s4.97,11.34,11.53,11.34,11.34-4.77,11.34-11.34-4.97-11.34-11.34-11.34Z" fill="#fff" stroke-width="0"/><path d="M363.06,45.07h-17.96v101.88h17.96V45.07Z" fill="#fff" stroke-width="0"/><path d="M659.7,130.7c-6.56.3-13.38-.11-18.69-5.19-6.45-6.16-9.86-18.58-9.86-35.91v-40.89h29.59v-17.63h-29.59V5.87h-17.96v25.21h-25.66v17.63h25.66v40.89c0,22.69,5.19,39.14,15.42,48.91,9.47,9.04,21.03,10.25,27.99,10.25,1.57,0,2.92-.06,3.94-.11l-.83-17.95h0Z" fill="#fff" stroke-width="0"/><path d="M580.01,91.26c0-25.97-2.73-40.63-9.43-50.61-9.26-13.79-24.95-15.56-37.57-15.56-1.13,0-27.62.15-41.01,20.37l13.24,8.77c8.62-13.01,27.56-13.26,27.75-13.26,18.72,0,27.8,2.98,30.37,30.11-46.91-.93-73.28,9.61-78.45,31.37-3.69,15.54,1.66,25.83,6.8,31.72,8.99,10.3,23.71,14.59,35.89,14.59,1.61,0,3.18-.08,4.69-.22,11.66-1.14,22.82-7.25,31.75-17.31.45,8.22,2.95,13.22,4.07,15.07.31.51.86.82,1.46.82h16.72c1.03,0,1.54-.77,1.09-1.71-8.39-17.48-7.42-34.21-7.42-61.26,0,0,.07,7.7.07,7.1h-.02ZM530.74,132.73c-8.8.86-20.93-1.96-27.08-9.01-3.97-4.55-5.05-10.31-3.32-17.61,1.43-6,9.95-19.22,57.23-19.22,2.1,0,4.27.03,6.53.08v5.67c-.75,19.2-16.6,38.46-33.36,40.09Z" fill="#fff" stroke-width="0"/><path d="M132.92,91.92c-19.63-19.22-44.74-15.09-54.71-30.67-.5-.78.29-1.75,1.15-1.39,4.09,1.7,9.2,4.18,18.18,4.86,34.05,2.59,45.53-23.78,49.31-40.24,1.8-7.83-4.17-15.29-12.21-15.29h-.37c-6.33,0-11.62,4.73-12.42,11-1.05,8.19-7.44,24.22-20.51,30.93-11.11,5.71-20.67,5.64-27.1,3.13-10.71-4.18-18.89-13.36-37.33-4.19-4.18,2.08-13.18,6.24-17.13,7.19-5.65,1.38-9.65,6.38-9.65,12.19v3.98c0,9.62,10.49,15.78,18.75,10.85,5.37-3.2,10.36-8.37,12.57-16.71,3.67-13.86,16.94-14.12,25.28-12.23.88.2.8,1.46-.09,1.56-22.65,2.6-8.36,22.18-26.21,37.37-7.01,5.96-14.48,8.61-20.26,9.79-5.84,1.2-10.04,6.3-10.04,12.26v18.01c0,7.71,6.9,13.6,14.51,12.36,18.72-3.05,48.77-13.67,48.77-48.79,0-11.11-9.23-29.85-2.28-37.91.79-.92,2.3-.36,2.4.86,1.34,16.73,13.14,25.4,27.91,35.3,12.38,8.3,13.78,26.04,13.04,38.39-.43,7.17,5.31,13.21,12.5,13.2h8.82c7.42,0,13.24-6.43,12.44-13.81-1.41-13.08-5.26-32.15-15.33-42.01h.01Z" fill="#fff" stroke-width="0"/><path d="M80.66,42.74c9.26,0,16.77-7.51,16.77-16.77s-7.51-16.77-16.77-16.77-16.77,7.51-16.77,16.77,7.51,16.77,16.77,16.77Z" fill="#fff" stroke-width="0"/></svg>