<?xml version="1.0" encoding="UTF-8"?><svg id="Capa_1" xmlns="http://www.w3.org/2000/svg" viewBox="0 0 927 144.25"><g id="Capa_1-2"><path d="M16.65,110.36V18.17H6.09v92.18c0,10.48,8.53,19.01,19.01,19.01h15.69v-10.56h-15.69c-4.66,0-8.45-3.79-8.45-8.45h0Z" fill="#fff" stroke-width="0"/><path d="M150.27,18.17h-10.56v92.18c0,10.48,8.53,19.01,19.01,19.01v-10.56c-4.66,0-8.45-3.79-8.45-8.45v-56.5h17.52v-10.56h-17.52v-25.12Z" fill="#fff" stroke-width="0"/><path d="M85.41,43.29c-20.49,0-37.15,16.67-37.15,37.15v11.77c0,20.49,16.67,37.15,37.15,37.15h17.16v-10.56h-17.16c-14.66,0-26.59-11.93-26.59-26.59v-11.77c0-14.66,11.93-26.59,26.59-26.59s26.59,11.93,26.59,26.59v43.64h10.56v-43.64c0-20.49-16.67-37.15-37.15-37.15h0Z" fill="#fff" stroke-width="0"/><path d="M341.38,43.29c-20.48,0-37.15,16.67-37.15,37.15v11.77c0,20.49,16.67,37.15,37.15,37.15h17.16v-10.56h-17.16c-14.66,0-26.59-11.93-26.59-26.59v-11.77c0-14.66,11.93-26.59,26.59-26.59s26.59,11.93,26.59,26.59v43.64h10.56v-43.64c0-20.49-16.67-37.15-37.15-37.15Z" fill="#fff" stroke-width="0"/><path d="M799.88,43.29c-20.48,0-37.15,16.67-37.15,37.15v11.77c0,20.49,16.67,37.15,37.15,37.15h17.16v-10.56h-17.16c-14.66,0-26.59-11.93-26.59-26.59v-11.77c0-14.66,11.93-26.59,26.59-26.59s26.59,11.93,26.59,26.59v43.64h10.56v-43.64c0-20.49-16.67-37.15-37.15-37.15Z" fill="#fff" stroke-width="0"/><path d="M531.55,12.89c-20.49,0-37.15,16.67-37.15,37.15v78.7h10.56V50.04c0-14.66,11.93-26.59,26.59-26.59s26.59,11.93,26.59,26.59v78.7h10.56V50.04c0-20.49-16.67-37.15-37.15-37.15Z" fill="#fff" stroke-width="0"/><path d="M721.41,12.89c-20.49,0-37.16,16.67-37.16,37.15v78.7h10.56V50.04c0-14.66,11.93-26.59,26.59-26.59s26.59,11.93,26.59,26.59c0,17.1-13.91,31.01-31.01,31.01h-11.7v10.56h11.7c22.92,0,41.57-18.65,41.57-41.57,0-20.49-16.67-37.15-37.15-37.15h0Z" fill="#fff" stroke-width="0"/><path d="M252.13,43.29c-20.48,0-37.15,16.67-37.15,37.15v48.3h10.56v-48.3c0-14.66,11.93-26.59,26.59-26.59s26.59,11.93,26.59,26.59v48.3h10.56v-48.3c0-20.48-16.67-37.15-37.15-37.15h0Z" fill="#fff" stroke-width="0"/><path d="M881.88,80.44v48.3h10.56v-48.3c0-14.66,11.93-26.59,26.59-26.59v-10.56c-20.49,0-37.15,16.67-37.15,37.15Z" fill="#fff" stroke-width="0"/><path d="M421.5,43.29c-14.81,0-26.86,12.05-26.86,26.86v3.92c0,14.81,12.05,26.85,26.86,26.85h7.36c4.93,0,8.94,4.01,8.94,8.94s-4.01,8.94-8.94,8.94h-28.93v10.56h28.93c10.75,0,19.5-8.75,19.5-19.5s-8.75-19.5-19.5-19.5h-7.36c-8.99,0-16.29-7.31-16.29-16.3v-3.92c0-8.99,7.31-16.3,16.29-16.3s16.3,7.31,16.3,16.3v.98h10.56v-.98c0-14.81-12.05-26.86-26.85-26.86h0Z" fill="#fff" stroke-width="0"/><rect x="183.84" y="58.62" width="10.56" height="70.12" fill="#fff" stroke-width="0"/><path d="M531.55,72.1c-3.44,0-6.23,2.79-6.23,6.22s2.79,6.22,6.23,6.22,6.23-2.79,6.23-6.22-2.79-6.22-6.23-6.22Z" fill="#fff" stroke-width="0"/><path d="M642.2,92.21c0,14.66-11.93,26.59-26.59,26.59s-26.59-11.93-26.59-26.59v-11.77h-10.56v11.77c0,20.49,16.67,37.15,37.15,37.15s37.15-16.67,37.15-37.15v-43.64h-10.56v43.64Z" fill="#fff" stroke-width="0"/><rect x="853.16" y="58.62" width="10.56" height="70.12" fill="#fff" stroke-width="0"/></g></svg>