<?xml version="1.0" encoding="UTF-8"?><svg id="Capa_1" xmlns="http://www.w3.org/2000/svg" viewBox="0 0 735.47 182.36"><path d="M459.43,94.85h105.15v-8.69h-105.15V20.01h109.86v-7.87h-118.15v156.84h121.39v-7.89h-113.09v-66.23Z" fill="#fff" stroke-width="0"/><path d="M616.57,161.09V12.14h-8.28v156.84h118.15v-7.89h-109.87Z" fill="#fff" stroke-width="0"/><path d="M405.84,43.34c-1.49-4.31-3.46-8.46-5.84-12.3C388.32,11.52,367.74-.04,345.05,0c-17.29-.07-34.34,4.44-49.14,13.32-22.1,13.18-36.72,36.2-45.23,59.71-2.2,6.07-4.08,12.25-5.7,18.46-1.27-.38-2.57-.75-3.86-1.13-.04-27.79-.06-56.05.01-81.06h-2.62l-.36,40.42c-.14,11.61-.31,25.4-.49,39.64-12.87-3.78-26.68-7.82-40.9-11.44V12.14h-8.29v63.74c-10.44-2.51-21.05-4.71-31.59-6.35-2.45-12.8-7.43-23.95-14.87-33.3-13.37-16.18-31.26-23.42-57.93-23.42H16.44v156.82h69.89c45.32,0,72.37-30.01,72.37-80.28,0-5.88-.45-11.48-1.28-16.82,10.21,1.73,20.6,4.03,31.07,6.67v89.77h8.29v-87.59c13.65,3.68,27.37,7.87,40.85,12.11-.22,17.85-.45,36.13-.63,51.4-.52,8.69-.74,17.42-.74,26.1l5.42.04c.45-24.63,2.76-49.57,8.87-73.45,28.79,9.11,56.13,17.71,79.26,21.04,12.58,1.98,25.67,2.26,37.91-1.73,16.8-5.11,30.96-18.17,37.31-34.61.29-.68.56-1.38.82-2.08v88.78h8.29V12.14h-8.29v31.21ZM24.73,130.64V21.71c0-.45.36-.81.81-.81h57.56c19.36,0,33.77,4.32,45.35,13.61,9.9,8.3,16.7,19.39,20.2,32.71.14.56-.32,1.09-.89,1-29.51-3.65-58.09-2.23-80.96,10.27-11.36,6.2-20.24,15.02-27.2,25.3-.13.18-.5.78-.63.96-6.93,11.01-14.25,33.05-14.25,25.87h0ZM134.74,141.41c-11.85,14.11-27.45,20.12-52.14,20.12H27.26c-.47,0-.85-.4-.81-.88,2.43-30.69,13.75-63.67,41.82-79.57,22.77-12.57,50.77-13.97,80.75-9.85.35.04.63.31.7.65,1.12,5.59,1.69,11.51,1.69,17.76,0,21.34-5.76,39.23-16.66,51.73v.03ZM241.16,108.97c0-4.76-.01-9.57-.03-14.39.96.31,1.91.6,2.87.91-1.07,4.47-2.02,8.96-2.84,13.49ZM399.01,68.32c-.52,15.33-10.25,29.13-23.02,37.19-9.91,6.13-21.8,8.92-33.42,8.36-28.48-1.56-55.89-10.51-83.24-18.25-2.26-.63-4.56-1.28-6.91-1.95-.43-.13-.68-.57-.57-1,1.62-5.77,3.46-11.48,5.56-17.09,8.45-22.25,21.92-43.15,42.65-55.27,13.38-7.83,29.35-11.86,44.81-11.56,19.76.21,37.11,10.24,47.02,27.28,5.9,9.61,8.17,21.14,7.11,32.31h.01Z" fill="#fff" stroke-width="0"/></svg>