<?xml version="1.0" encoding="UTF-8"?><svg id="Capa_1" xmlns="http://www.w3.org/2000/svg" viewBox="0 0 922.5 178.49"><path d="M247.6,7.44c44.58,0,74.9,33.49,74.9,78.07s-30.33,78.07-74.9,78.07-74.9-33.49-74.9-78.07S202.8,7.44,247.6,7.44M247.6,24.19c-33.94,0-55.44,26.02-55.44,61.32s21.49,61.32,55.44,61.32,55.44-26.25,55.44-61.32-21.72-61.32-55.44-61.32" fill="#fff" stroke-width="0"/><path d="M343.22,85.51c0-46.39,34.17-78.07,76.93-78.07,27.38,0,45.94,12.89,57.93,29.87l-15.84,8.82c-8.6-12.67-24.21-21.95-42.09-21.95-32.36,0-57.48,25.34-57.48,61.32s25.12,61.32,57.48,61.32c17.88,0,33.49-9.05,42.09-21.95l16.06,8.82c-12.67,17.19-30.77,29.87-58.16,29.87-42.76,0-76.94-31.68-76.94-78.07" fill="#fff" stroke-width="0"/><path d="M836.78,26.68h50.73V9.94h-29.42s-9.48,0-21.1-.02c-23.24-.02-42.09,18.77-42.18,41.99h0c.08,23.23,18.94,42.02,42.18,41.99,11.62,0,21.1-.02,21.1-.02h4.42c13.82.13,24.97,11.34,24.99,25.18v.08c-.02,13.91-11.31,25.19-25.23,25.19h-67.47v16.74h46.16s9.48,0,21.1.02c23.24.02,42.09-18.77,42.18-41.99h0c-.08-22.8-18.28-41.32-40.93-41.96h-.06c-.4,0-.79-.03-1.19-.03-11.63,0-21.1.02-21.1.02h-4.42c-13.82-.13-24.98-11.34-24.99-25.18v-.08c.02-13.91,11.31-25.19,25.23-25.19" fill="#fff" stroke-width="0"/><path d="M122.57,83.13c13.81-2.94,26.48-15.61,26.48-34.62,0-22.63-16.06-38.47-42.32-38.47H8.65v150.93h99.67c27.61,0,43.67-16.52,43.67-40.73,0-18.1-13.35-34.62-29.41-37.11M104.47,144.23H27.43V26.79h76.13c16.97,0,26.02,10.86,26.02,24.44s-9.06,24.21-26.02,24.21h-57.35v16.74h58.26c18.55,0,28.06,12.21,28.06,26.02,0,16.06-10.41,26.02-28.06,26.02" fill="#fff" stroke-width="0"/><polygon points="643.84 160.98 582.98 10.04 559.67 10.04 499.03 160.98 519.84 160.98 571.44 26.79 593.62 84.49 568.7 84.49 562.36 101 572.9 101 579.53 101 599.97 101 623.03 160.98 643.84 160.98" fill="#fff" stroke-width="0"/><path d="M774.09,55.53c0-27.84-19.69-45.48-47.29-45.48h-62.23v150.93h18.78V26.79h41.18c17.88,0,30.09,11.77,30.09,28.74s-12.21,28.97-30.09,28.97h-23.49l-6.35,16.52h18.76l38.47,59.96h22.17l-39.15-61.55c20.59-1.81,39.15-16.74,39.15-43.89" fill="#fff" stroke-width="0"/></svg>