<?xml version="1.0" encoding="UTF-8"?><svg id="uuid-8ca0ea3a-23c8-4970-9831-fb105d64f817" xmlns="http://www.w3.org/2000/svg" viewBox="0 0 1084.68 208.65"><g id="uuid-5ddb127a-6ad9-4de6-b0dd-9fbea408e37d"><rect x="709.21" y="0" width="146.01" height="36.3" style="fill:#fff;"/><rect x="712.31" y="86.15" width="139.82" height="36.36" style="fill:#fff;"/><rect x="709.21" y="172.29" width="146.01" height="36.3" style="fill:#fff;"/><polygon points="646.68 0 479.81 0 479.81 41.69 542.38 41.69 542.38 208.59 584.1 208.59 584.1 41.69 646.68 41.69 646.68 0" style="fill:#fff;"/><polygon points="341.07 83.93 411.97 .03 357.35 0 292.12 77.23 292.12 .03 289.96 .03 280.29 .03 250.4 .03 250.4 208.62 289.96 208.62 289.96 208.59 292.12 208.59 292.12 141.68 312.64 117.58 368.43 208.62 417.27 208.62 341.07 83.93" style="fill:#fff;"/><polygon points="1008.48 83.96 1079.37 .06 1024.76 .03 959.52 77.26 959.52 .06 957.37 .06 947.7 .06 917.8 .06 917.8 208.65 957.37 208.65 957.37 208.62 959.52 208.62 959.52 141.71 980.04 117.61 1035.84 208.65 1084.68 208.65 1008.48 83.96" style="fill:#fff;"/><polygon points="93.87 65.35 143.67 208.62 187.73 208.62 115.24 .03 115.24 .03 72.5 .03 0 208.62 43.82 208.62 93.87 65.35" style="fill:#fff;"/></g></svg>