<?xml version="1.0" encoding="UTF-8"?><svg id="Capa_1" xmlns="http://www.w3.org/2000/svg" viewBox="0 0 738.28 310.5"><polygon points="54.42 176.93 54.42 136.88 45.56 136.88 45.56 166.72 16.03 136.88 4.62 136.88 4.62 176.93 13.49 176.93 13.49 146.88 43.22 176.93 54.42 176.93" fill="#fff" stroke-width="0"/><path d="M205.12,168.46c-.26.04-1.37.09-1.81.09h-35.26v8.16h35.82c.29,0,2.36-.01,2.83-.05,7.31-.65,10.64-6.73,10.64-12.11s-3.46-11.31-10.09-11.96c-1.3-.12-2.37-.13-2.88-.12h-23.39c-1.06,0-2.16-.09-2.6-.21-1.87-.5-2.53-2.12-2.53-3.46,0-1.23.68-2.87,2.6-3.44.57-.17,1.17-.17,2.45-.17h33.79v-8.1h-34.34c-1.45,0-2.51.05-3.44.17-5.88.81-9.98,5.55-9.98,11.54,0,4.9,3.09,10.63,9.85,11.61,1.21.17,2.95.16,3.69.16h22.81c.43,0,1.45.03,1.65.05,2.56.36,3.47,2.28,3.47,3.96.01,1.64-.99,3.46-3.25,3.86" fill="#fff" stroke-width="0"/><path d="M138.38,168.46c-.25.04-1.36.09-1.81.09h-35.26v8.16h35.82c.29,0,2.37-.01,2.83-.05,7.31-.65,10.64-6.73,10.64-12.11s-3.47-11.31-10.09-11.96c-1.3-.12-2.37-.13-2.87-.12h-23.39c-1.06,0-2.16-.09-2.6-.21-1.85-.5-2.52-2.12-2.52-3.46,0-1.23.68-2.87,2.59-3.44.58-.17,1.17-.17,2.45-.17h33.79v-8.1h-34.34c-1.45,0-2.52.05-3.44.17-5.88.8-9.99,5.55-9.99,11.54,0,4.9,3.09,10.63,9.85,11.61,1.21.17,2.95.15,3.69.16h22.81c.43,0,1.45.03,1.66.05,2.56.36,3.47,2.28,3.47,3.96s-1,3.46-3.25,3.86" fill="#fff" stroke-width="0"/><rect x="74.02" y="136.88" width="8.86" height="40.05" fill="#fff" stroke-width="0"/><polygon points="339.86 136.88 339.86 166.72 310.32 136.88 298.92 136.88 298.92 176.93 307.78 176.93 307.78 146.88 337.51 176.93 348.72 176.93 348.72 136.88 339.86 136.88" fill="#fff" stroke-width="0"/><path d="M267.51,162.2h-20.02l10.02-16.09,9.99,16.09h.01ZM252.74,136.88l-25.01,40.05h10.76l4.44-7.16h29.16l4.45,7.16h10.74l-25-40.05h-9.55,0Z" fill="#fff" stroke-width="0"/><path d="M53.92,114.12C71.8,61.9,121.13,26.82,176.71,26.82s104.92,35.08,122.78,87.3l.15.43h39.08v-4.7l-16.27-1.89c-10.02-1.17-12.17-5.59-14.88-11.18l-.67-1.35C283.42,45.34,232.3,12.98,176.69,12.98S69.96,45.34,46.47,95.42l-.67,1.36c-2.71,5.59-4.86,10.02-14.88,11.18l-16.27,1.89v4.69h39.08l.16-.44h.02Z" fill="#fff" stroke-width="0"/><path d="M299.63,199.28l-.15.43c-17.87,52.21-67.21,87.28-122.79,87.28h-.01c-55.58,0-104.92-35.1-122.78-87.32l-.15-.43H14.67v4.69l16.26,1.9c10.03,1.18,12.18,5.59,14.88,11.19l.65,1.34c23.49,50.09,74.61,82.45,130.21,82.46h.02c55.6,0,106.71-32.35,130.21-82.41l.67-1.36c2.71-5.59,4.86-10.02,14.88-11.18l16.27-1.89v-4.69h-39.08v-.02Z" fill="#fff" stroke-width="0"/><path d="M490.27,129.3v16.08h31.66v13.08h-31.66v22.67h-15.48v-64.92h50.43v13.08h-34.96.01Z" fill="#fff" stroke-width="0"/><path d="M536.21,181.13v-64.92h15.48v64.92h-15.48Z" fill="#fff" stroke-width="0"/><path d="M607.53,169.35h-30.66c-1.2,3.9-2.4,7.89-3.6,11.78h-16.08c6.99-22.87,16.18-47.13,24.57-64.92h21.57c9.28,19.67,18.57,43.95,25.06,64.92h-17.08l-3.8-11.78h.01ZM603.13,156.26c-3.2-9.09-6.59-18.18-11.09-28.56-3.99,9.19-7.59,18.88-10.89,28.56h21.97,0Z" fill="#fff" stroke-width="0"/><path d="M679.34,181.13l-30.27-43.74v43.74h-15.18v-64.82h17.87l27.77,40.64v-40.64h15.18v64.82h-15.38.01Z" fill="#fff" stroke-width="0"/><path d="M708.71,181.13v-64.92h15.48v64.92h-15.48Z" fill="#fff" stroke-width="0"/><rect x="413.71" y="14.94" width="4.34" height="259.52" fill="#fff" stroke-width="0"/></svg>