<?xml version="1.0" encoding="UTF-8"?><svg id="Layer_2" xmlns="http://www.w3.org/2000/svg" viewBox="0 0 674.24 674.18"><g id="Contenido"><path d="M338.41,455.31c-.81-.02-1.62-.05-2.44-.09h0c.82.03,1.63.06,2.44.09Z" fill="none" stroke="#fff" stroke-miterlimit="10"/><path d="M354.43,454.38c-1.64.23-3.28.43-4.93.57,1.65-.15,3.29-.34,4.93-.57Z" fill="none" stroke="#fff" stroke-miterlimit="10"/><path d="M363.96,452.57c-1.68.41-3.37.77-5.06,1.08,1.69-.32,3.38-.68,5.06-1.08Z" fill="none" stroke="#fff" stroke-miterlimit="10"/><path d="M368.97,451.24c-1.66.49-3.33.93-5.01,1.33,1.68-.41,3.35-.85,5.01-1.33Z" fill="none" stroke="#fff" stroke-miterlimit="10"/><path d="M388.15,443.65c-1.87.95-3.76,1.84-5.67,2.67,1.91-.84,3.8-1.73,5.67-2.67Z" fill="none" stroke="#fff" stroke-miterlimit="10"/><path d="M403.86,434.17c-1.57,1.12-3.17,2.2-4.79,3.24,1.62-1.05,3.22-2.13,4.79-3.24Z" fill="none" stroke="#fff" stroke-miterlimit="10"/><path d="M465.14,338.36c-3.16-.95-6.41-1.73-9.75-2.35h0c3.34.6,6.59,1.39,9.75,2.35Z" fill="none" stroke="#fff" stroke-miterlimit="10"/><path d="M506.94,364.81c-1.21-1.3-2.44-2.58-3.7-3.82,1.28,1.24,2.51,2.52,3.7,3.82Z" fill="none" stroke="#fff" stroke-miterlimit="10"/><path d="M515.25,375.18c-1.02-1.45-2.08-2.87-3.16-4.27,1.1,1.4,2.15,2.82,3.16,4.27Z" fill="none" stroke="#fff" stroke-miterlimit="10"/><path d="M519.57,381.89c-1.36-2.28-2.8-4.52-4.32-6.7,1.53,2.18,2.97,4.41,4.32,6.7Z" fill="none" stroke="#fff" stroke-miterlimit="10"/><path d="M323.05,515.79c-.52-.64-1.04-1.29-1.55-1.94,0-.01,0-.02,0-.03.52.66,1.04,1.32,1.56,1.97Z" fill="none" stroke="#fff" stroke-miterlimit="10"/><path d="M372.31,558.11c-2-1.08-3.99-2.23-5.97-3.44,1.98,1.2,3.98,2.35,5.97,3.44Z" fill="none" stroke="#fff" stroke-miterlimit="10"/><path d="M376.83,560.45c-1.51-.74-3.01-1.52-4.51-2.34,1.5.81,3,1.59,4.51,2.34Z" fill="none" stroke="#fff" stroke-miterlimit="10"/><path d="M387.78,565.25c-2.09-.8-4.18-1.67-6.26-2.6,2.08.93,4.17,1.79,6.26,2.6Z" fill="none" stroke="#fff" stroke-miterlimit="10"/><path d="M404.32,618.01c-40.32-20-72.57-56.01-82.74-103.79,6.63,27.62,20.73,53.81,42.3,75.38h0c13.53,11.75,27.05,21.13,40.44,28.41Z" fill="none" stroke="#fff" stroke-miterlimit="10"/><path d="M401.94,569.74c-1.52-.39-3.05-.8-4.58-1.25,1.52.44,3.05.86,4.58,1.25Z" fill="none" stroke="#fff" stroke-miterlimit="10"/><path d="M406.53,570.8c-1.53-.32-3.05-.67-4.58-1.06,1.53.38,3.05.73,4.58,1.06Z" fill="none" stroke="#fff" stroke-miterlimit="10"/><path d="M338.41,455.31c-.81-.02-1.62-.05-2.44-.09h0c.82.03,1.63.06,2.44.09Z" fill="none" stroke="#fff" stroke-miterlimit="10"/><path d="M354.43,454.38c-1.64.23-3.28.43-4.93.57,1.65-.15,3.29-.34,4.93-.57Z" fill="none" stroke="#fff" stroke-miterlimit="10"/><path d="M363.96,452.57c-1.68.41-3.37.77-5.06,1.08,1.69-.32,3.38-.68,5.06-1.08Z" fill="none" stroke="#fff" stroke-miterlimit="10"/><path d="M368.97,451.24c-1.66.49-3.33.93-5.01,1.33,1.68-.41,3.35-.85,5.01-1.33Z" fill="none" stroke="#fff" stroke-miterlimit="10"/><path d="M388.15,443.65c-1.87.95-3.76,1.84-5.67,2.67,1.91-.84,3.8-1.73,5.67-2.67Z" fill="none" stroke="#fff" stroke-miterlimit="10"/><path d="M403.86,434.17c-1.57,1.12-3.17,2.2-4.79,3.24,1.62-1.05,3.22-2.13,4.79-3.24Z" fill="none" stroke="#fff" stroke-miterlimit="10"/><path d="M465.14,338.36c-3.16-.95-6.41-1.73-9.75-2.35h0c3.34.6,6.59,1.39,9.75,2.35Z" fill="none" stroke="#fff" stroke-miterlimit="10"/><path d="M506.94,364.81c-1.21-1.3-2.44-2.58-3.7-3.82,1.28,1.24,2.51,2.52,3.7,3.82Z" fill="none" stroke="#fff" stroke-miterlimit="10"/><path d="M515.25,375.18c-1.02-1.45-2.08-2.87-3.16-4.27,1.1,1.4,2.15,2.82,3.16,4.27Z" fill="none" stroke="#fff" stroke-miterlimit="10"/><path d="M519.57,381.89c-1.36-2.28-2.8-4.52-4.32-6.7,1.53,2.18,2.97,4.41,4.32,6.7Z" fill="none" stroke="#fff" stroke-miterlimit="10"/><path d="M323.05,515.79c-.52-.64-1.04-1.29-1.55-1.94,0-.01,0-.02,0-.03.52.66,1.04,1.32,1.56,1.97Z" fill="none" stroke="#fff" stroke-miterlimit="10"/><path d="M372.31,558.11c-2-1.08-3.99-2.23-5.97-3.44,1.98,1.2,3.98,2.35,5.97,3.44Z" fill="none" stroke="#fff" stroke-miterlimit="10"/><path d="M376.83,560.45c-1.51-.74-3.01-1.52-4.51-2.34,1.5.81,3,1.59,4.51,2.34Z" fill="none" stroke="#fff" stroke-miterlimit="10"/><path d="M387.78,565.25c-2.09-.8-4.18-1.67-6.26-2.6,2.08.93,4.17,1.79,6.26,2.6Z" fill="none" stroke="#fff" stroke-miterlimit="10"/><path d="M404.32,618.01c-40.32-20-72.57-56.01-82.74-103.79,6.63,27.62,20.73,53.81,42.3,75.38h0c13.53,11.75,27.05,21.13,40.44,28.41Z" fill="none" stroke="#fff" stroke-miterlimit="10"/><path d="M401.94,569.74c-1.52-.39-3.05-.8-4.58-1.25,1.52.44,3.05.86,4.58,1.25Z" fill="none" stroke="#fff" stroke-miterlimit="10"/><path d="M406.53,570.8c-1.53-.32-3.05-.67-4.58-1.06,1.53.38,3.05.73,4.58,1.06Z" fill="none" stroke="#fff" stroke-miterlimit="10"/><path d="M515.25,375.19c1.52,2.18,2.96,4.42,4.32,6.7-1.35-2.29-2.79-4.52-4.32-6.7ZM512.09,370.91c1.08,1.4,2.14,2.82,3.16,4.27-1.01-1.45-2.06-2.87-3.16-4.27ZM503.24,360.99c1.26,1.24,2.49,2.52,3.7,3.82-1.19-1.3-2.42-2.58-3.7-3.82ZM455.39,336h0c3.34.63,6.59,1.41,9.75,2.36-3.16-.96-6.41-1.75-9.75-2.36ZM321.49,513.82s0,.02,0,.03c.51.65,1.03,1.3,1.55,1.94-.52-.65-1.04-1.31-1.56-1.97ZM397.36,568.49c1.53.45,3.06.86,4.58,1.25-1.53-.39-3.06-.81-4.58-1.25ZM401.95,569.74c1.53.39,3.05.74,4.58,1.06-1.53-.33-3.05-.68-4.58-1.06ZM381.52,562.65c2.08.93,4.17,1.8,6.26,2.6-2.09-.81-4.18-1.67-6.26-2.6ZM372.32,558.11c1.5.82,3,1.6,4.51,2.34-1.51-.75-3.01-1.53-4.51-2.34ZM366.34,554.67c1.98,1.21,3.97,2.36,5.97,3.44-1.99-1.09-3.99-2.24-5.97-3.44ZM363.96,452.57c1.68-.4,3.35-.84,5.01-1.33-1.66.48-3.33.92-5.01,1.33ZM358.9,453.65c1.69-.31,3.38-.67,5.06-1.08-1.68.4-3.37.76-5.06,1.08ZM335.97,455.21h0c.82.05,1.63.08,2.44.1-.81-.03-1.62-.06-2.44-.1ZM349.5,454.95c1.65-.14,3.29-.34,4.93-.57-1.64.23-3.28.42-4.93.57ZM382.48,446.32c1.91-.83,3.8-1.72,5.67-2.67-1.87.94-3.76,1.83-5.67,2.67ZM399.07,437.41c1.62-1.04,3.22-2.12,4.79-3.24-1.57,1.11-3.17,2.19-4.79,3.24ZM363.88,589.61h0c-21.57-21.58-35.67-47.77-42.3-75.39,10.17,47.78,42.42,83.79,82.74,103.79-13.39-7.28-26.91-16.66-40.44-28.4ZM349.42,156.2c.15.18.29.36.44.55v-.02c-.15-.18-.29-.36-.44-.53ZM171.4,121.15c34.72-21.03,77.57-28.03,117.83-11.75-40.76-16.89-83.38-9.62-117.83,11.75ZM167.82,311.72c13.13,13.73,30.3,23.73,50.65,27.34-18.56-3.82-36.25-12.94-50.65-27.34ZM148.8,283.74c4.78,10.28,11.18,19.79,19.02,27.98-8.03-9.39-14.31-18.75-19.02-27.98ZM85.89,308.98c-12.03-13.81-21.56-27.63-28.85-41.32,19.07,39.36,53.57,71.15,99.7,82.2-25.95-6.9-50.5-20.54-70.85-40.88ZM100.15,246.78c.92,26.84,10.77,54.37,32.41,79.72-21.23-26.01-31.12-53.37-32.41-79.72Z" fill="#fff" stroke="#fff" stroke-miterlimit="10"/><path d="M616.04,337.44c-47.26-47.26-112.56-65.49-173.74-54.68-10.65-21.13-29.75-40.25-50.88-50.92C428.53,48.63,189.75-79.06,58.13,58.14c-137.26,131.69-9.33,370.63,173.95,333.24,10.66,21.03,29.69,40.04,50.73,50.67-37.41,183.32,201.52,311.27,333.23,173.98,76.93-76.93,76.93-201.66,0-278.59ZM358.9,453.65c1.69-.32,3.38-.68,5.06-1.08,1.68-.41,3.35-.85,5.01-1.33.62-.18,1.24-.37,1.86-.56.93-.29,1.86-.6,2.78-.91.92-.32,1.84-.64,2.75-.98,1.63-.6,3.24-1.24,4.84-1.92.43-.18.86-.37,1.28-.55,1.91-.84,3.8-1.73,5.67-2.67l1.86-.96c.82-.44,1.64-.88,2.46-1.33,1.12-.62,2.23-1.26,3.33-1.92,1.1-.66,2.19-1.34,3.27-2.03,1.62-1.05,3.22-2.13,4.79-3.24.53-.37,1.05-.75,1.57-1.13h.01c1.13-.84,2.25-1.68,3.35-2.55,4.06-3.18,7.94-6.62,11.59-10.27,4.98-4.98,9.56-10.37,13.65-16.08.54-.76,1.07-1.52,1.61-2.29.25-.39.52-.78.78-1.17.52-.78,1.02-1.56,1.53-2.34.24-.4.49-.8.74-1.2.49-.79.97-1.59,1.45-2.39.23-.4.46-.81.7-1.22.46-.81.91-1.62,1.36-2.43.44-.82.87-1.65,1.3-2.48.42-.83.83-1.66,1.24-2.49h0c.4-.84.79-1.68,1.18-2.52.19-.43.38-.85.56-1.28.37-.85.74-1.7,1.09-2.55h0c.35-.86.69-1.72,1.02-2.58,5.01-13.13,7.51-27.1,6.8-41.19h0c3.34.6,6.59,1.39,9.75,2.35,1.05.31,2.1.65,3.13,1,6.89,2.33,13.32,5.44,19.26,9.19.47.29.95.6,1.42.91,2.35,1.54,4.61,3.18,6.79,4.91.88.69,1.74,1.4,2.58,2.12.85.72,1.68,1.46,2.5,2.21s1.63,1.51,2.42,2.29c1.28,1.24,2.51,2.52,3.7,3.82,1.8,1.96,3.52,4,5.15,6.1,1.1,1.4,2.15,2.82,3.16,4.27h0c1.53,2.19,2.97,4.42,4.32,6.71.9,1.53,1.76,3.08,2.59,4.65.26.48.5.96.74,1.43.49.96.96,1.92,1.41,2.88,1.82,3.89,3.41,7.88,4.76,11.95.68,2.04,1.3,4.09,1.84,6.17.37,1.37.71,2.75,1.03,4.14,3.97,17.6,3.54,36.17-2,53.45-.48,1.5-1,2.99-1.56,4.46-4.47,11.83-11.43,22.95-21.13,32.59-.6.6-1.22,1.19-1.84,1.79-.59.63-1.19,1.25-1.8,1.86-1.2,1.21-2.43,2.37-3.67,3.5-.63.57-1.26,1.12-1.9,1.67-1.19,1.02-2.4,1.99-3.63,2.94-.82.63-1.64,1.24-2.47,1.83-1.25.89-2.51,1.75-3.79,2.57-.69.45-1.38.88-2.07,1.3-2.76,1.67-5.59,3.18-8.47,4.53-3.61,1.69-7.29,3.13-11.04,4.34l-1.83.57c-1.84.55-3.69,1.04-5.55,1.47-.93.22-1.87.42-2.8.61-.93.19-1.87.37-2.81.53-.95.16-1.89.31-2.84.44-5.95.85-11.98,1.15-17.99.93-1.36-.04-2.71-.12-4.07-.22-.01-.01-.02-.01-.03,0-1.63-.12-3.25-.29-4.87-.48l-1.62-.21c-1.62-.22-3.23-.48-4.84-.78-2.14-.4-4.27-.86-6.39-1.38-1.06-.26-2.11-.54-3.16-.83-1.05-.3-2.09-.6-3.13-.93-.52-.16-1.04-.33-1.56-.5-2.18-.72-4.33-1.5-6.46-2.35-.53-.21-1.06-.43-1.59-.65-1.58-.66-3.14-1.37-4.69-2.1-.69-.33-1.38-.67-2.06-1.01-.69-.34-1.37-.69-2.04-1.05h-.01c-1.53-.82-3.05-1.67-4.55-2.56h0c-2.24-1.33-4.44-2.75-6.57-4.26-4.99-3.5-9.68-7.44-13.96-11.79-2.02-2.03-3.93-4.16-5.75-6.38-.9-1.11-1.79-2.24-2.66-3.4-.87-1.15-1.71-2.32-2.51-3.51h0c-1.63-2.4-3.14-4.88-4.54-7.43-1.39-2.56-2.68-5.21-3.85-7.93-.58-1.36-1.13-2.73-1.65-4.13-1.81-4.9-3.23-10.03-4.21-15.39h0c.82.03,1.63.06,2.44.09,3.05.07,6.1,0,9.13-.2.1-.01.2-.02.31-.03.55-.04,1.1-.09,1.65-.13,1.65-.15,3.29-.34,4.93-.57,1.49-.21,2.98-.45,4.47-.73ZM57.04,267.66c-19.83-40.9-23.01-89.98-5.28-132.46,25.74-53.55,83.71-91.13,143.07-95.06,43.75.11,87.49,17.84,118.01,49.39,14.88,17.27,27.56,39.44,36.99,67.12.01.03.02.05.03.08v.02c-.15-.19-.29-.37-.44-.55-18.6-22.9-39.07-38.02-60.04-46.73-.05-.03-.1-.05-.15-.07-40.26-16.28-83.11-9.28-117.83,11.75-.29.17-.57.35-.85.53-42.15,26.52-71.84,74.19-70.43,124.34.01.25.02.5.03.76,1.29,26.35,11.18,53.71,32.41,79.72.04.05.07.09.12.14,6.82,7.98,14.8,15.74,24.06,23.22-46.13-11.05-80.63-42.84-99.7-82.2ZM318.37,219.74c-2.45.37-4.88.84-7.29,1.4-.48.11-.96.22-1.44.34-2.31.56-4.6,1.21-6.86,1.93-2.27.72-4.52,1.51-6.74,2.38-1.77.7-3.53,1.44-5.28,2.22-1.74.78-3.47,1.61-5.18,2.48-3.41,1.74-6.75,3.66-10,5.73-.4.24-.79.5-1.19.76-.78.52-1.55,1.04-2.32,1.56-.39.26-.78.53-1.16.8-.77.55-1.52,1.09-2.28,1.64-1.13.83-2.25,1.68-3.35,2.56-1.47,1.16-2.92,2.36-4.34,3.58h-.01c-.71.61-1.41,1.23-2.11,1.86-1.74,1.57-3.44,3.19-5.1,4.86-22.58,22.69-36.76,53.75-34.84,85.3h0c-.14-.02-.27-.05-.41-.08-20.35-3.61-37.52-13.61-50.65-27.34-7.84-8.19-14.24-17.7-19.02-27.98-12.41-26.62-13.99-58.38-1.6-85.53,16.79-32.68,52.63-55.27,89.34-57.85,28.12-.07,56.3,11.34,75.93,31.54,10.13,11.84,18.61,27.27,24.57,46.77h0c-3-.12-5.98-.09-8.96.07-.1-.01-.19,0-.28,0-1.68.09-3.35.23-5.02.41-.49.05-.98.11-1.47.17-.98.13-1.96.26-2.94.41ZM540.87,623.66c-43.73,18.7-94.53,15.22-136.55-5.65-40.32-20-72.57-56.01-82.74-103.79-.04-.13-.07-.26-.1-.39t.02.02s0-.02,0-.03c.52.66,1.04,1.32,1.56,1.97,1.57,1.95,3.15,3.84,4.75,5.68,0,.01,0,.01,0,.02,1.06,1.22,2.12,2.41,3.19,3.59.54.59,1.09,1.18,1.62,1.77,1.09,1.14,2.16,2.27,3.24,3.37,0,0,0,.02,0,.02,4.21,4.28,8.49,8.21,12.83,11.81.96.8,1.93,1.58,2.9,2.35,1.46,1.14,2.92,2.25,4.39,3.33.97.72,1.95,1.41,2.93,2.1.98.68,1.97,1.35,2.96,2.01.99.65,1.97,1.28,2.96,1.91.5.3,1,.61,1.5.92,1.98,1.2,3.98,2.35,5.97,3.44h.01c1.5.81,3,1.59,4.51,2.34h.01c1.56.77,3.12,1.5,4.68,2.2,2.08.93,4.17,1.79,6.26,2.6.52.2,1.05.4,1.57.59,1.4.51,2.79,1,4.19,1.46.51.16,1.02.33,1.53.49.76.24,1.53.47,2.29.7,1.52.44,3.05.86,4.58,1.25h.01c1.53.38,3.05.73,4.58,1.06.58.12,1.15.24,1.72.35,1.72.34,3.44.64,5.16.9h.01c10.55,1.6,21.07,1.77,31.38.68.69-.08,1.38-.16,2.07-.24,1.82-.23,3.63-.49,5.44-.79,1.15-.19,2.3-.4,3.44-.62,1.13-.21,2.25-.45,3.37-.7,1.11-.25,2.22-.51,3.33-.78.01,0,.01-.01.02-.01,3.32-.83,6.62-1.79,9.88-2.87,22.84-7.6,43.72-21.25,60.49-38.79.8-.83,1.58-1.67,2.36-2.52h.01c.78-.86,1.54-1.72,2.3-2.58,0-.01.01-.01.01-.01,1.14-1.3,2.25-2.62,3.35-3.96,0-.01.01-.01.01-.01.72-.89,1.44-1.79,2.15-2.7.71-.91,1.41-1.84,2.11-2.76,1.03-1.39,2.03-2.79,3.02-4.21h.01c.98-1.42,1.94-2.86,2.87-4.31.94-1.46,1.85-2.93,2.74-4.41,1.17-1.98,2.3-3.98,3.39-6,.54-1.02,1.07-2.05,1.6-3.07.38-.77.76-1.54,1.14-2.32.56-1.16,1.1-2.33,1.63-3.51.53-1.17,1.04-2.36,1.54-3.55.22-.53.44-1.07.66-1.6.42-1.06.84-2.12,1.24-3.19.2-.55.4-1.09.6-1.63.38-1.07.76-2.15,1.12-3.24.35-1.06.69-2.13,1.01-3.2.23-.76.45-1.51.67-2.27.44-1.52.85-3.05,1.23-4.58.79-3.19,1.47-6.42,2.01-9.67.35-2.02.65-4.05.89-6.08,1.15-9.55,1.22-19.28.08-29.06-.14-1.18-.3-2.36-.47-3.54-.36-2.37-.78-4.75-1.27-7.13-.25-1.18-.51-2.36-.8-3.55-.29-1.19-.59-2.38-.91-3.57-.49-1.77-1.01-3.55-1.58-5.32h0c-.57-1.78-1.19-3.55-1.84-5.32h0c-.82-2.22-1.72-4.43-2.68-6.64-.64-1.47-1.32-2.94-2.02-4.4-.3-.62-.6-1.24-.91-1.85-.62-1.23-1.26-2.46-1.92-3.69-.34-.61-.68-1.23-1.02-1.85-1.32-2.34-2.72-4.68-4.2-7-.9-1.4-1.82-2.79-2.77-4.17,0,0-.01,0-.01-.01-.32-.46-.64-.92-.97-1.39-1.31-1.84-2.67-3.68-4.08-5.5-.71-.91-1.43-1.82-2.17-2.73-.75-.91-1.5-1.81-2.26-2.73-.78-.89-1.56-1.79-2.35-2.69-.4-.44-.8-.89-1.21-1.34-.81-.89-1.64-1.78-2.48-2.67-.84-.89-1.7-1.78-2.57-2.66-.5-.5-1.01-1-1.51-1.51-1.3-1.28-2.63-2.55-3.99-3.83-.99-.92-2.01-1.84-3.04-2.76-1.02-.91-2.07-1.82-3.13-2.73-1.07-.91-2.16-1.82-3.26-2.72-.6-.49-1.2-.97-1.8-1.46-.52-.41-1.04-.82-1.56-1.23.01,0,.03.01.04.01,29.09,9.16,52.36,21.87,70.46,36.98,32.39,30.58,50.93,74.81,51.54,119.22-3.43,60.2-40.97,119.39-94.98,145.95Z" fill="#fff" stroke="#fff" stroke-miterlimit="10"/><path d="M132.56,326.5c-21.64-25.35-31.49-52.88-32.41-79.72,1.29,26.35,11.18,53.71,32.41,79.72Z" fill="none" stroke="#fff" stroke-miterlimit="10"/><path d="M156.74,349.86c-46.13-11.05-80.63-42.84-99.7-82.2,7.29,13.69,16.82,27.51,28.85,41.32,20.35,20.34,44.9,33.98,70.85,40.88Z" fill="none" stroke="#fff" stroke-miterlimit="10"/><path d="M289.23,109.4c-40.26-16.28-83.11-9.28-117.83,11.75,34.45-21.37,77.07-28.64,117.83-11.75Z" fill="none" stroke="#fff" stroke-miterlimit="10"/><path d="M349.86,156.73v.02c-.15-.19-.29-.37-.44-.55.15.17.29.35.44.53Z" fill="none" stroke="#fff" stroke-miterlimit="10"/><path d="M167.82,311.72c-7.84-8.19-14.24-17.7-19.02-27.98,4.71,9.23,10.99,18.59,19.02,27.98Z" fill="none" stroke="#fff" stroke-miterlimit="10"/><path d="M218.47,339.06c-20.35-3.61-37.52-13.61-50.65-27.34,14.4,14.4,32.09,23.52,50.65,27.34Z" fill="none" stroke="#fff" stroke-miterlimit="10"/><path d="M132.56,326.5c-21.64-25.35-31.49-52.88-32.41-79.72,1.29,26.35,11.18,53.71,32.41,79.72Z" fill="none" stroke="#fff" stroke-miterlimit="10"/><path d="M156.74,349.86c-46.13-11.05-80.63-42.84-99.7-82.2,7.29,13.69,16.82,27.51,28.85,41.32,20.35,20.34,44.9,33.98,70.85,40.88Z" fill="none" stroke="#fff" stroke-miterlimit="10"/><path d="M289.23,109.4c-40.26-16.28-83.11-9.28-117.83,11.75,34.45-21.37,77.07-28.64,117.83-11.75Z" fill="none" stroke="#fff" stroke-miterlimit="10"/><path d="M349.86,156.73v.02c-.15-.19-.29-.37-.44-.55.15.17.29.35.44.53Z" fill="none" stroke="#fff" stroke-miterlimit="10"/><path d="M167.82,311.72c-7.84-8.19-14.24-17.7-19.02-27.98,4.71,9.23,10.99,18.59,19.02,27.98Z" fill="none" stroke="#fff" stroke-miterlimit="10"/><path d="M218.47,339.06c-20.35-3.61-37.52-13.61-50.65-27.34,14.4,14.4,32.09,23.52,50.65,27.34Z" fill="none" stroke="#fff" stroke-miterlimit="10"/><path d="M338.41,455.31c-.81-.02-1.62-.05-2.44-.09h0c.82.03,1.63.06,2.44.09Z" fill="none" stroke="#fff" stroke-miterlimit="10"/><path d="M354.43,454.38c-1.64.23-3.28.43-4.93.57,1.65-.15,3.29-.34,4.93-.57Z" fill="none" stroke="#fff" stroke-miterlimit="10"/><path d="M363.96,452.57c-1.68.41-3.37.77-5.06,1.08,1.69-.32,3.38-.68,5.06-1.08Z" fill="none" stroke="#fff" stroke-miterlimit="10"/><path d="M368.97,451.24c-1.66.49-3.33.93-5.01,1.33,1.68-.41,3.35-.85,5.01-1.33Z" fill="none" stroke="#fff" stroke-miterlimit="10"/><path d="M388.15,443.65c-1.87.95-3.76,1.84-5.67,2.67,1.91-.84,3.8-1.73,5.67-2.67Z" fill="none" stroke="#fff" stroke-miterlimit="10"/><path d="M403.86,434.17c-1.57,1.12-3.17,2.2-4.79,3.24,1.62-1.05,3.22-2.13,4.79-3.24Z" fill="none" stroke="#fff" stroke-miterlimit="10"/><path d="M465.14,338.36c-3.16-.95-6.41-1.73-9.75-2.35h0c3.34.6,6.59,1.39,9.75,2.35Z" fill="none" stroke="#fff" stroke-miterlimit="10"/><path d="M506.94,364.81c-1.21-1.3-2.44-2.58-3.7-3.82,1.28,1.24,2.51,2.52,3.7,3.82Z" fill="none" stroke="#fff" stroke-miterlimit="10"/><path d="M515.25,375.18c-1.02-1.45-2.08-2.87-3.16-4.27,1.1,1.4,2.15,2.82,3.16,4.27Z" fill="none" stroke="#fff" stroke-miterlimit="10"/><path d="M519.57,381.89c-1.36-2.28-2.8-4.52-4.32-6.7,1.53,2.18,2.97,4.41,4.32,6.7Z" fill="none" stroke="#fff" stroke-miterlimit="10"/><path d="M338.41,455.31c-.81-.02-1.62-.05-2.44-.09h0c.82.03,1.63.06,2.44.09Z" fill="none" stroke="#fff" stroke-miterlimit="10"/><path d="M354.43,454.38c-1.64.23-3.28.43-4.93.57,1.65-.15,3.29-.34,4.93-.57Z" fill="none" stroke="#fff" stroke-miterlimit="10"/><path d="M363.96,452.57c-1.68.41-3.37.77-5.06,1.08,1.69-.32,3.38-.68,5.06-1.08Z" fill="none" stroke="#fff" stroke-miterlimit="10"/><path d="M368.97,451.24c-1.66.49-3.33.93-5.01,1.33,1.68-.41,3.35-.85,5.01-1.33Z" fill="none" stroke="#fff" stroke-miterlimit="10"/><path d="M388.15,443.65c-1.87.95-3.76,1.84-5.67,2.67,1.91-.84,3.8-1.73,5.67-2.67Z" fill="none" stroke="#fff" stroke-miterlimit="10"/><path d="M403.86,434.17c-1.57,1.12-3.17,2.2-4.79,3.24,1.62-1.05,3.22-2.13,4.79-3.24Z" fill="none" stroke="#fff" stroke-miterlimit="10"/><path d="M465.14,338.36c-3.16-.95-6.41-1.73-9.75-2.35h0c3.34.6,6.59,1.39,9.75,2.35Z" fill="none" stroke="#fff" stroke-miterlimit="10"/><path d="M506.94,364.81c-1.21-1.3-2.44-2.58-3.7-3.82,1.28,1.24,2.51,2.52,3.7,3.82Z" fill="none" stroke="#fff" stroke-miterlimit="10"/><path d="M515.25,375.18c-1.02-1.45-2.08-2.87-3.16-4.27,1.1,1.4,2.15,2.82,3.16,4.27Z" fill="none" stroke="#fff" stroke-miterlimit="10"/><path d="M519.57,381.89c-1.36-2.28-2.8-4.52-4.32-6.7,1.53,2.18,2.97,4.41,4.32,6.7Z" fill="none" stroke="#fff" stroke-miterlimit="10"/><path d="M167.82,311.72c-7.84-8.19-14.24-17.7-19.02-27.98,4.71,9.23,10.99,18.59,19.02,27.98Z" fill="none" stroke="#fff" stroke-miterlimit="10"/><path d="M218.47,339.06c-20.35-3.61-37.52-13.61-50.65-27.34,14.4,14.4,32.09,23.52,50.65,27.34Z" fill="none" stroke="#fff" stroke-miterlimit="10"/><path d="M167.82,311.72c-7.84-8.19-14.24-17.7-19.02-27.98,4.71,9.23,10.99,18.59,19.02,27.98Z" fill="none" stroke="#fff" stroke-miterlimit="10"/><path d="M218.47,339.06c-20.35-3.61-37.52-13.61-50.65-27.34,14.4,14.4,32.09,23.52,50.65,27.34Z" fill="none" stroke="#fff" stroke-miterlimit="10"/></g></svg>