<?xml version="1.0" encoding="UTF-8"?>
<svg id="Capa_1" data-name="Capa 1" xmlns="http://www.w3.org/2000/svg" viewBox="0 0 1004.62 151.09">
  <defs>
    <style>
      .cls-1, .cls-2 {
        fill: #fff;
      }

      .cls-2 {
        fill-rule: evenodd;
      }
    </style>
  </defs>
  <path class="cls-2" d="m123.56,22.6l-2.23,2.47-8.41,9.29-2.96,3.26H14.22C26.98,17.4,49.52,3.96,75.21,3.96c18.61,0,35.57,7.06,48.35,18.64Z"/>
  <path class="cls-2" d="m75.21,76.02l-38.4,38.4-9.96,9.96-2.6,2.6c-13.04-13.04-21.11-31.06-21.11-50.96h72.07Z"/>
  <path class="cls-2" d="m136.19,114.42c-12.76,20.23-35.3,33.67-60.98,33.67-18.61,0-35.58-7.06-48.36-18.64l2.24-2.47,8.41-9.29,2.95-3.27h95.74Z"/>
  <path class="cls-2" d="m147.27,76.02h-72.06l48.35-48.35,2.6-2.6.07.06c13,13.04,21.04,31.03,21.04,50.89Z"/>
  <g>
    <path class="cls-1" d="m175.35,35.27h16.65v10.69h.41c5.14-8.26,12.32-12.59,22.47-12.59,18.82,0,31.14,15.16,31.14,38.18s-12.18,38.31-31.68,38.31c-9.61,0-17.46-4.2-21.93-11.51h-.41c.27,2.71.54,7.31.54,14.08v19.36h-17.19V35.27Zm53.2,36.69c0-14.35-5.82-24.64-17.6-24.64-13,0-19.09,10.97-19.09,24.64s5.96,24.23,19.22,24.23c11.37,0,17.46-10.02,17.46-24.23Z"/>
    <path class="cls-1" d="m274.72,48.26h.41c4.6-9.34,11.51-14.08,20.71-14.08,2.03,0,3.38.14,4.6.68v15.43h-.54c-1.62-.41-2.98-.54-4.74-.54-11.37-.14-19.9,7.58-19.9,21.52v36.28h-17.19V35.27h16.65v13Z"/>
    <path class="cls-1" d="m308.02,71.55c0-21.52,14.49-38.18,36.96-38.18s36.69,16.65,36.69,38.18-14.21,38.18-36.69,38.18-36.96-16.79-36.96-38.18Zm56.18,0c0-14.62-6.77-25.45-19.36-25.45s-19.36,10.83-19.36,25.45,6.63,25.18,19.36,25.18,19.36-10.69,19.36-25.18Z"/>
    <path class="cls-1" d="m391.27,94.56l28.83-35.33c3.66-4.2,10.42-10.56,10.42-10.56v-.41s-9.07.81-14.62.81h-21.93v-13.81h56.72v11.78l-28.7,35.2c-4.06,4.6-11.51,11.51-11.51,11.51v.41s9.75-.68,15.7-.68h26.26v14.08h-61.19v-13Z"/>
    <path class="cls-1" d="m464.77,131.38v-13.94h.95c.68.41,5.42.68,7.17.68,5.82,0,9.07-2.17,10.56-7.99,0-1.35.68-8.12-.81-12.05l-24.91-62.81h18.28l11.91,33.57c3.11,8.93,6.09,22.47,6.09,22.47h.27s3.25-13.67,6.23-22.47l11.51-33.57h17.33l-28.02,76.35c-5.96,15.97-12.18,20.58-23.96,20.58-2.17,0-11.37-.41-12.59-.81Z"/>
    <path class="cls-1" d="m554.66,45.83h.41c4.74-7.99,12.32-12.45,22.47-12.45,15.57,0,24.91,9.61,24.91,25.18v49.01h-17.19v-46.16c0-8.53-5.01-13.81-13.81-13.81-9.61,0-16.38,7.31-16.38,17.6v42.37h-17.19V35.27h16.79v10.56Z"/>
    <path class="cls-1" d="m613.95,71.55c0-21.52,14.49-38.18,35.88-38.18,10.56,0,18.82,3.66,24.91,10.15,7.04,7.45,10.42,18.82,10.29,32.22h-54.02c1.22,12.45,7.85,20.85,19.9,20.85,8.26,0,13.67-3.52,15.97-9.48h16.79c-3.52,13-15.16,22.61-32.9,22.61-23.01,0-36.82-16.79-36.82-38.18Zm17.33-6.63h36.01c-.68-11.91-7.04-19.09-17.46-19.09-11.24,0-17.06,7.72-18.55,19.09Z"/>
    <path class="cls-1" d="m713.71,48.26h.41c4.6-9.34,11.51-14.08,20.71-14.08,2.03,0,3.38.14,4.6.68v15.43h-.54c-1.62-.41-2.98-.54-4.74-.54-11.37-.14-19.9,7.58-19.9,21.52v36.28h-17.19V35.27h16.65v13Z"/>
    <path class="cls-1" d="m749.72,111.21h16.52c1.22,5.96,6.77,8.93,16.25,8.93,11.51,0,17.46-5.42,17.46-15.84v-1.76c0-3.93.13-7.58.27-10.02h-.41c-4.47,7.17-10.83,11.1-20.44,11.1-17.6,0-31.54-13.27-31.54-34.79s13.27-35.47,30.59-35.47c10.15,0,17.06,3.52,21.39,11.24h.27v-9.34h16.65v67.55c0,10.15-3.38,17.6-9.07,22.61-5.96,5.01-14.76,7.31-24.91,7.31-19.36,0-31.27-7.85-33.03-21.52Zm50.9-42.91c0-12.86-5.96-21.52-18.28-21.52-11.24,0-17.46,8.53-17.46,21.8s6.36,21.8,17.6,21.8c13.13,0,18.14-9.48,18.14-22.07Z"/>
    <path class="cls-1" d="m832.3,6.84h17.6v16.65h-17.6V6.84Zm.27,28.43h17.19v72.29h-17.19V35.27Z"/>
    <path class="cls-1" d="m861.67,71.55c0-21.52,14.49-38.18,35.88-38.18,10.56,0,18.82,3.66,24.91,10.15,7.04,7.45,10.42,18.82,10.29,32.22h-54.01c1.22,12.45,7.85,20.85,19.9,20.85,8.26,0,13.67-3.52,15.97-9.48h16.79c-3.52,13-15.16,22.61-32.9,22.61-23.01,0-36.82-16.79-36.82-38.18Zm17.33-6.63h36.01c-.68-11.91-7.04-19.09-17.46-19.09-11.24,0-17.06,7.72-18.55,19.09Z"/>
    <path class="cls-1" d="m940.19,85.35h16.52c1.35,8.66,7.99,12.32,17.19,12.32s13.94-4.06,13.94-9.88c0-7.17-7.31-8.53-18.68-10.69-13.54-2.71-26.4-5.82-26.4-22.2,0-13.67,11.64-21.52,28.56-21.52,19.22,0,28.83,8.66,30.59,21.25h-16.38c-1.22-6.23-5.82-9.61-14.35-9.61-7.99,0-12.18,3.65-12.18,8.66,0,6.36,7.45,7.58,18.41,9.61,13.67,2.57,27.21,5.82,27.21,23.42,0,15.16-13,23.15-30.87,23.15-20.58,0-32.49-9.88-33.57-24.5Z"/>
  </g>
</svg>