<?xml version="1.0" encoding="UTF-8"?><svg id="Layer_2" xmlns="http://www.w3.org/2000/svg" xmlns:xlink="http://www.w3.org/1999/xlink" viewBox="0 0 321.86 64.28"><defs><filter id="drop-shadow-1" filterUnits="userSpaceOnUse"><feOffset dx="7" dy="7"/><feGaussianBlur result="blur" stdDeviation="10"/><feFlood flood-color="#000" flood-opacity=".3"/><feComposite in2="blur" operator="in"/><feComposite in="SourceGraphic"/></filter></defs><g id="Layer_1-2"><g filter="url(#drop-shadow-1)"><path d="M179.04,26.51c-.38,12.38-.75,24.75-1.13,37.42h-8.34c1.07-21.09,2.14-42.28,3.23-63.85,2.79,0,5.21-.23,7.54.12.83.12,1.93,1.56,2.09,2.53,1.73,10.21,3.3,20.45,4.92,30.68.1.64.27,1.28,1.12,1.98,3.04-11.69,6.09-23.37,9.16-35.17h9.36c-1.11,21.29-2.2,42.38-3.31,63.73h-8.38c.89-12.76,1.79-25.52,2.68-38.29-.15-.04-.31-.07-.46-.11-1.44,5.43-2.89,10.86-4.31,16.3-.61,2.33-1.41,4.65-1.68,7.02-.38,3.37-2.31,4.31-5.17,3.61-1.04-.25-2.43-1.44-2.61-2.4-1.32-7.1-2.37-14.25-3.51-21.39-.12-.78-.31-1.54-.47-2.31l-.72.12Z" fill="#fff" stroke-width="0"/><path d="M257.39,26.95v37h-8.89c1.06-21.25,2.11-42.37,3.18-63.67h9.37c1.83,11.72,3.66,23.43,5.49,35.15l.8.13c3.06-11.74,6.12-23.48,9.2-35.31h9.36c-1.12,21.29-2.22,42.38-3.34,63.72h-8.33c.88-12.79,1.75-25.37,2.61-37.96-.12-.04-.24-.09-.36-.13-.29.86-.63,1.7-.85,2.58-1.89,7.22-3.89,14.42-5.56,21.7-.7,3.07-2.79,2.28-4.72,2.47-2.09.21-2.63-.9-2.9-2.71-1.15-7.7-2.42-15.38-3.65-23.07-.47.04-.93.08-1.4.13Z" fill="#fff" stroke-width="0"/><path d="M100.54,64.03c1.08-21.45,2.15-42.44,3.21-63.43,6.53,0,12.76-.43,18.89.15,4.39.41,6.84,3.93,6.93,8.81.09,4.8-.29,9.62-.53,14.42-.53,10.34-1.08,20.67-1.66,31-.31,5.51-2.75,8.61-7.98,8.96-6.08.4-12.2.09-18.85.09ZM109.27,56.17c1.41.11,2.12.2,2.84.21,6.75.15,6.91-.03,7.23-6.64.56-11.79,1.14-23.59,1.72-35.38.29-5.82-.38-6.56-6.12-6.48-.92.01-1.84.18-3.01.29-.88,16.02-1.76,31.85-2.65,47.99Z" fill="#fff" stroke-width="0"/><path d="M292.46,32.81c.4-7.33.74-14.67,1.19-22,.47-7.64,3.81-10.7,11.55-10.74,2.17-.01,4.34-.02,6.5,0,7.26.07,10.41,3.12,10.14,10.47-.38,10.59-1.08,21.16-1.64,31.75-.2,3.85-.31,7.7-.64,11.54-.63,7.33-3.82,10.26-11.17,10.39-2.53.05-5.06.07-7.59-.01-6.49-.22-9.53-3.23-9.38-9.75.17-7.22.67-14.43,1.03-21.65ZM300.9,32.5c-.34,6.38-.63,12.76-1.03,19.14-.18,2.85.55,4.64,3.84,4.78,5.68.26,7.23-.34,7.44-3.84.81-13.47,1.53-26.95,2.16-40.44.05-1.17-.58-3.29-1.22-3.42-2.52-.51-5.3-.93-7.71-.31-1.15.3-2.25,2.93-2.4,4.6-.58,6.48-.76,12.99-1.09,19.49Z" fill="#fff" stroke-width="0"/><path d="M214.72,10.66c.51-7.47,3.91-10.55,11.34-10.59,2.41-.01,4.82-.04,7.22,0,6.76.15,9.88,3.26,9.63,10.25-.41,11.31-1.11,22.61-1.73,33.9-.22,3.96-.33,7.96-.94,11.86-.83,5.24-3.79,7.74-9.11,8.05-3.24.18-6.5.18-9.75.02-6.01-.28-8.74-3.08-8.83-9.14,0,0,1.65-36.92,2.16-44.37ZM233.34,31.89s.04,0,.05,0c.36-6.5.81-13,1.02-19.5.04-1.28-.61-3.55-1.31-3.7-2.51-.55-5.31-.91-7.71-.26-1.13.3-2.18,3-2.3,4.68-.86,12.75-1.44,25.51-2.18,38.27-.17,2.96.45,4.91,3.96,5.05,6,.23,7.15-.38,7.4-4.67.39-6.62.71-13.24,1.06-19.86Z" fill="#fff" stroke-width="0"/><path d="M161.32,64.04h-8.52l1.28-22.96h-9.6c-.42,7.47-.84,14.99-1.28,22.83h-8.58c0-.96,2.04-35.95,2.91-52.43.44-8.29,3.69-11.37,12.04-11.41,1.57,0,3.13-.03,4.7,0,6.73.14,9.98,3.09,9.72,9.79-.72,17.92-1.74,35.84-2.66,54.18ZM144.82,32.96c2.71,0,5,.25,7.19-.11.97-.16,2.42-1.49,2.5-2.39.53-6.21.76-12.45,1.07-18.68.11-2.28-.87-3.75-3.26-3.84-2.47-.08-5.74-.66-6.11,2.77-.77,7.23-.95,14.52-1.4,22.25Z" fill="#fff" stroke-width="0"/><path d="M58.56,64.04h-8.52l1.28-22.96h-9.6c-.42,7.47-.84,14.99-1.28,22.83h-8.58c0-.96,2.04-35.95,2.91-52.43C35.21,3.19,38.46.1,46.81.07c1.57,0,3.13-.03,4.7,0,6.73.14,9.98,3.09,9.72,9.79-.72,17.92-1.74,35.84-2.66,54.18ZM42.06,32.96c2.71,0,5,.25,7.19-.11.97-.16,2.42-1.49,2.5-2.39.53-6.21.76-12.45,1.07-18.68.11-2.28-.87-3.75-3.26-3.84-2.47-.08-5.74-.66-6.11,2.77-.77,7.23-.95,14.52-1.4,22.25Z" fill="#fff" stroke-width="0"/><path d="M69.89.09c6.18,0,11.84-.17,17.48.05,4.99.2,7.91,2.95,7.91,8.06,0,7.33-.51,14.67-1.16,21.98-.17,1.88-1.19,4.17-2.6,5.34-2.27,1.89-2.25,3.78-1.77,6.27,1.21,6.26,2.21,12.57,3.28,18.86.18,1.04.24,2.09.37,3.36h-7.82c-.98-6.02-1.96-12.04-2.95-18.05-.21-1.31-.6-2.61-.62-3.92-.06-3.83-2.13-4.35-5.63-3.27-.44,8.22-.9,16.58-1.36,25.18h-8.43c1.1-21.23,2.18-42.32,3.3-63.87ZM76.73,30.75c1.4.11,2.11.2,2.82.21,5.6.1,6.46-.69,6.76-6.28.22-4.07.4-8.15.61-12.22.17-3.18-1.3-4.7-4.5-4.58-1.4.05-2.8,0-4.49,0-.42,7.82-.81,15.2-1.22,22.87Z" fill="#fff" stroke-width="0"/><path d="M17.57,49.3h7.44c2.1,9.18-2.23,14.83-11.28,14.93-12.18.14-14.21-1.89-13.64-14.03.62-13.12,1.34-26.23,2.08-39.34C2.59,3.23,5.99.1,13.68.07c12.53-.05,14.45,1.96,13.84,14.55-.05,1.06-.2,2.11-.32,3.35h-7.99c0-2.14-.05-4.04.01-5.93.08-2.63-.98-4.1-3.76-4.17-2.56-.06-4.61.43-4.8,3.54-.36,5.89-.73,11.78-1.06,17.67-.42,7.34-.81,14.67-1.2,22.01-.13,2.46-.43,5,3.17,5.29,3.76.31,5.01-.61,5.6-4.37.13-.82.24-1.65.4-2.72Z" fill="#fff" stroke-width="0"/></g></g></svg>